/* XPM */
static char *_e15bb6e7cab469fafeea948ae73210aHer1rTPfAE8c5p2b[] = {
/* columns rows colors chars-per-pixel */
"50 47 251 2 ",
"   c #0C0F15",
".  c #380F0B",
"X  c #1B233C",
"o  c #272829",
"O  c #3A3837",
"+  c #2B2A34",
"@  c #221D28",
"#  c #45090A",
"$  c #52130F",
"%  c #6C120F",
"&  c #732E1E",
"*  c #4D3A37",
"=  c #722D27",
"-  c #511F1E",
";  c #4F483B",
":  c #714C37",
">  c #494749",
",  c #564847",
"<  c #595757",
"1  c #4F5052",
"2  c #685449",
"3  c #695655",
"4  c #755C5B",
"5  c #715246",
"6  c #796459",
"7  c #64635B",
"8  c #5E5D69",
"9  c #5A5F75",
"0  c #645D64",
"q  c #5E616D",
"w  c #696768",
"e  c #766A69",
"r  c #696A73",
"t  c #766C73",
"y  c #6C7477",
"u  c #777677",
"i  c #73746D",
"p  c #5B625A",
"a  c #8E3527",
"s  c #BC4C0C",
"d  c #B74808",
"f  c #BD530C",
"g  c #AA4B19",
"h  c #BC4D13",
"j  c #B54C16",
"k  c #AB541B",
"l  c #B3531C",
"z  c #BB5219",
"x  c #B95316",
"c  c #AC4D09",
"v  c #9E5627",
"b  c #9A5A33",
"n  c #914D35",
"m  c #AB5425",
"M  c #A75629",
"N  c #B55826",
"B  c #A85A36",
"V  c #B25A34",
"C  c #AF4F23",
"Z  c #A6643A",
"A  c #B7653A",
"S  c #AD6E34",
"D  c #90562F",
"F  c #C34C0B",
"G  c #C64A05",
"H  c #C4530C",
"J  c #C54E15",
"K  c #C65617",
"L  c #D54F10",
"P  c #C96A30",
"I  c #CD5E22",
"U  c #835C48",
"Y  c #975B43",
"T  c #8A5951",
"R  c #97654B",
"E  c #876558",
"W  c #986A56",
"Q  c #98745A",
"!  c #8A664E",
"~  c #A77658",
"^  c #B67A57",
"/  c #AB6C4B",
"(  c #846B69",
")  c #88766B",
"_  c #9A7966",
"`  c #877A77",
"'  c #997B76",
"]  c #8E6E72",
"[  c #A37C68",
"{  c #BC7B65",
"}  c #A05D4A",
"|  c #C77B55",
" . c #D77B4B",
".. c #7D817A",
"X. c #9B8552",
"o. c #A68456",
"O. c #B88F58",
"+. c #8B857B",
"@. c #968478",
"#. c #9F836E",
"$. c #A98369",
"%. c #B88767",
"&. c #A78978",
"*. c #B88B75",
"=. c #B9937B",
"-. c #A9927C",
";. c #B8A67E",
":. c #C68855",
">. c #D28958",
",. c #F78F5B",
"<. c #C78766",
"1. c #D78A67",
"2. c #C29467",
"3. c #C78D72",
"4. c #C7957A",
"5. c #D69776",
"6. c #DE9060",
"7. c #EA9569",
"8. c #D2AC79",
"9. c #F0A577",
"0. c #757684",
"q. c #6E6F84",
"w. c #867984",
"e. c #8B7E90",
"r. c #7B8194",
"t. c #7D818A",
"y. c #848483",
"u. c #898788",
"i. c #978985",
"p. c #9B948C",
"a. c #858595",
"s. c #958D98",
"d. c #989798",
"f. c #A68C87",
"g. c #A9948A",
"h. c #B79A88",
"j. c #A79A97",
"k. c #B59C97",
"l. c #AE8D92",
"z. c #B9A48D",
"x. c #ABA39A",
"c. c #BAA699",
"v. c #B3AD97",
"b. c #9895A3",
"n. c #A69CA5",
"m. c #AA9DAA",
"M. c #A3A2A5",
"N. c #ADABAC",
"B. c #A9A5A7",
"V. c #B2ABAB",
"C. c #B5A9A5",
"Z. c #BBB3AE",
"A. c #B8B3A8",
"S. c #ABABB3",
"D. c #ADB5B7",
"F. c #B3B2B3",
"G. c #BCB4B2",
"H. c #B4B4B9",
"J. c #BCBBBB",
"K. c #BAB8B7",
"L. c #B2ADB2",
"P. c #9BA2A0",
"I. c #C79B84",
"U. c #D59B84",
"Y. c #C69994",
"T. c #CAA488",
"R. c #DAA98A",
"E. c #C5A99A",
"W. c #D6AB96",
"Q. c #D9B599",
"!. c #CCB294",
"~. c #E6B797",
"^. c #FDB793",
"/. c #EBAB8A",
"(. c #C4ACA6",
"). c #C9B7AB",
"_. c #D6B8A6",
"`. c #C3BDBB",
"'. c #C6B7B5",
"]. c #D3BAB6",
"[. c #D7AFA5",
"{. c #E7BBA5",
"}. c #EFB9AD",
"|. c #BEC2BC",
" X c #F6C298",
".X c #DAC3AA",
"XX c #C3C2BC",
"oX c #CAC3B9",
"OX c #D8C5B8",
"+X c #C9C0AF",
"@X c #E9C6AB",
"#X c #F8C8A9",
"$X c #E5CBB8",
"%X c #FACDB3",
"&X c #EAD2BC",
"*X c #FAD5BA",
"=X c #FFD3A6",
"-X c #FFE1BB",
";X c #BCBBC3",
":X c #B0AEC2",
">X c #C7BDC2",
",X c #BCC4C5",
"<X c #C4C3C3",
"1X c #CBC4C3",
"2X c #CBCBCC",
"3X c #C8C8C8",
"4X c #D4CCCC",
"5X c #D8CBC6",
"6X c #D3D2CD",
"7X c #DBD3C9",
"8X c #D7CCD2",
"9X c #D4D4D4",
"0X c #DBD4D3",
"qX c #DBDAD4",
"wX c #DCDBDC",
"eX c #D6D7DA",
"rX c #CCD0D1",
"tX c #E6D4CA",
"yX c #FBDCC6",
"uX c #E2DDDB",
"iX c #E6D9D5",
"pX c #EAD4D0",
"aX c #DCE1DB",
"sX c #FDE5CC",
"dX c #E2E2DE",
"fX c #EBE3DC",
"gX c #E9E7D8",
"hX c #FEECDC",
"jX c #F8E6DA",
"kX c #FFF1DA",
"lX c #DBDBE2",
"zX c #E3DDE1",
"xX c #DEE3E7",
"cX c #E4E2E3",
"vX c #EBE4E4",
"bX c #ECEBEB",
"nX c #E7E8E8",
"mX c #F7EAE7",
"MX c #FFF4E4",
"NX c #F4F3EE",
"BX c #FEF5EB",
"VX c #FFFBEB",
"CX c #FFFAE6",
"ZX c #F3F3F3",
"AX c #FEF6F3",
"SX c #FEFBF4",
"DX c #FCF4FB",
"FX c #F5FCFE",
"GX c #FEFDFC",
"HX c #F4F6F7",
"JX c #EEEFF2",
/* pixels */
"MXCXCXMXVXBXBXBXBXSXVXSXGXGXFXeXbXGX4X6XB.&X.XR.| ,.1.%X%X*XkXCXmXSXGXJXeXGX+XoX&X@XQ. XR.R.8.{.{.R.",
"$X*X~.T._.yXW.5.$.MXCXSXGXDX8XmXpXBX).!.Q.=X-X8.C C m ^.N M R sXiXmXuX9X3XGXK.OX&X@X!.R.%.O.%.R.T.U.",
"~.O.g M ^ ^.l l B jXBX' l.jXDXmXU.5.| A A k k P s J g ^.s l / kXtXSX9X9X6XGXOXOX.X@X8.:./ %.3.^ %.T.",
"5.6.h s B =XF F N %XBX, e jXyX~ B j h F G f f K H F N 9.H d ^ sXmXNXZXZXeXGXoXOX@X~./ o.<.^ 3.R ~  X",
"| ^.J G m =Xf H M %XMXZXgXiXOX~ k F G H L G F I G K V 7.h g 2.@X'.zXJXcX2XGXOXOX_.%X~.%.o.%.%.Q !.Q.",
"Y %XJ J v ^.P k M R.BXJ.GXmXOX{ k f J c j J K H K P ^./.6.1.!.).B.L.L.n.M.GX7X).T.=.@X=X@XR.*.Q.T.! ",
"Y }./ V %.#X~. X%X@XSXvXeXF.c.*.v M ^ /.U.5.9.J H K & W I.yX7XH.lXS.xXlXS.mXtX).h._ Q $.I.$.&._ Q $.",
"[ W.~.{.MXkX*XT.~ *XiXcXH.r ` ].~.sXkXCXY.W >.c d P 3.( ' pXB.rXGXnXeX<Xj.B.gXv.!.#.$.Q =.=.z._ _.Q.",
"kXVXVX$X%X| N C B #X].<Xy P.JXGXAXBXjXgX5X* D j f P &Xx.j.'.iXGXGXGXGXGXGX5XgX(.&X%XQ.Q.*XsX%X[ T.Q.",
"` i i 7X^ M J z v W.tXp.3XFXGXGXDXjXh._ T b A j f A sX|.GX4Xt G.y.y.9Xi qX7XkXz.&X&X*X%X{.yXsX-.6 =.",
"1 > ..CXR.g z N / g.uXqXGXaXuX5X{.^ V l h h h J z A Q.d.ZXD.o u O O K.u.p.oXSX) ).&.z.h.-._.tXE.c.jX",
"y i 6XCXW b | 8.h.A.NX9XbXJ.s.] R M l H F s K j V / -.XXGX;Xw B.y w F.i bX6XSX` +.+XBXCXMXBXoXg.d.u.",
"AXDXSXCXv.hXCXE.0X>XJX0XH.S.e.w.W.B M C Z <.U.W.@X!.T.x.GXD.o 0.> O u u.u.6XHXuX7X7XdXfXgXqX7X<X2XeX",
"{.*.: ).OXCXZ.aX8XH.lXzX;XJX:X4X}.3.U.%X%X{._.E.&.@.E 6 vXN.w j.< y d.a.;XFXuX3X2XnXdXeXwXbXZXGXGXHX",
"g C B 8.8..Xv.FX:XlXlXnXJXbXN.uX8XBXAXBXA.$X).i.' _ 5 (.4XN.1 y < O B.o B.DX3Xd.nX8XdX3X* > t 0XdXd.",
"G h P O.O.o.v.gXd.D.lXFX9XAX3X`.<XZXnXFX6X'.qX].k.E 5XVX4Xu p B.o O w O a.HXrXaXGXvX0XSXi , vXqXwXHX",
"J j S O.O.X.v.Z.u.d.2X3XK.<X2XaXNX9X2XcXuX8XF.iXh.v.`.ZX9XHXGXFXy ..F.< ,XFXrXaXVXcXGXGX4 * pXcXHXHX",
" .:.Q.-XO.X.z.fXXXJ.0X4Xj.0X6XCX3XqX4XmXfXC.bXG.c.-.1XeXqXGXFXHXO + y.o a.nXF.F.eXHXGXB.* o 6 cXJXy ",
"hXMXjXCX;.X.A.x.jX5XjXoXA.0XqX|.6X4XiX7X5Xx.XXZ.g.f.0Xs.oXSXGXFXH.H.>XG.OX).SX>Xr O r 0 4 * @ X X X ",
"SXHXFXVX|.X.A.i.OX).).v.&.&.v.+X).jX).f.' (.oXtXW.( ].B.V.5XM.2XGXDX(.[.I.E.DXeXq.  8 1 0 *   @ X @ ",
"XXaXNXFXiXx.|.x.).c.W 5 : o.8.8.5.R # $ # - ] ).W.: (.0X3X1XNX4Xx.x._ / B 3.SXrXy   o O ; + > q a.D.",
"bX3X2XxXaX9X4XAXl.: -.Q X.S 8.8.S % $ # $ $ k.E.W.U f.V.XX1XfXyX#.R | B N v VXcXD.P.A.7XCXCXGXDXbXtX",
"n.GXwX,XwXGXmXiXtX@.z.! 2.O.8.2.4.% . # # - g.c.~.5 ` m.n.g.T.O.v k f d z v MXGXSXbXjX$XQ.T.h._ I.*.",
"AXzX<XF.D.3X8X5X7Xx.z.!.2.:./.8.} $ # # # . h.E._.T ( 0X'.k.~ M k f G F A / jXmXv.h.)._.=.$.*.R *.%.",
"zXiXZ.qX3X|.v.x.).` 4XOX~ Z :.5.n = $ $ $ # T e.h.@.@.SXvX5X%.B  . .I J U.e.uXGXh.I._.{.@XQ.4.4.*.4.",
"].>XoXbXA.).c.f.C.vX4Xc.! b B g a % T }.AX(.] k.g.j.7X6XqXtX' U.| V V V e.(.eXDX).*._ h.Q.@XsXR.4.#X",
"L.m.NXgXx.c.z.C.1X0X>X4 : : a % % - jXmXjXmX'.>XrXrXqXSXDXmXe.U.Y <.V Y ] S.lXDXc._ 5 U : Q Q $.=.: ",
"zXL.bXoX@.c.T._.g.8XbX2 #.! a % % . ].0XiXzXV.iXwX<XiXhXMX].C.].[.yXU.W 5 l.8XFX).h.6 E W $.=.h.T.E ",
"3X3XqX` c.$.~.%.T.' f.5 ( W $ % # e.DXvXH.;XC.fXAX'.*XyX^.~.].).DXBXf.( i.oXiXGX].OXz.E..X.XjXsXW.Q ",
"3X1XG.x.h.$.W 3._ ' l.'.5 5 $ = w.'.m.m.b.S.4X5XtX*.Z m V b [.G.uX0X` 3 I.D E.BXDXjXjXsXtXgXgXtXOXc.",
").tX'.f.k.f.U W ' (.m.lXiX( E Y.k.V.>X>XJXJXH.].{.} k f F g _.tX).p.w.E A m =.DX2XJ.Z.OXiXiX0XuXmXBX",
"OXqXpX` i.[.E f.m.zX>X>X(.pX>Xs.'.zXH.S.;X>Xm.'.W./ m f l M _.tX*X[ [.{ z z %.SXS.u o ( _ 6 > >X2XJX",
"bXXXbXiX@.+Xg.J.rX9Xm.S.4Xi.] w.j.K.>XM.rXlXeXvX].[ Y Y T E E W / g V  .F s ^ BXH.1 * * : 2 @.SXnXGX",
"bXaXXX5X+X@.v.3XeXd.e.b.'.f.4 ` L.bXnX:XP.eXDX8XjXtXk.e 2 3 R B F J I J F x <.AX,X+ o ( [.).+XSX9XGX",
"|.dX5XqX).+.3X<Xd.y 8 t , i.( >XL.1XnXS.K.mXnXDX4XiXl.k.k.h.V j h I P J h N ~.SXrX@ * j.c.@.) bX0XHX",
"A.C.0XgX7Xp.XXdXt.u.1 , e i.( t <X4XxXlX<XB.V.`.8X5X( 4 $.B x F N  .K J d 7.Q VXSXGXVXSXSXNXBXMXfXbX",
"V.Z.G.fXiXp.nXqXs.t 4 > g.e e p.vXuX>XcX;Xn.r t C.] 2 R M x s N | | h J N 7.b sXCX|.|.v.4XdX9XXX4XuX",
"oXXX'.Z.SX|.NX3Xy.e uXc.k.'.C.>XL.>X,X2XlXS.s.d.n.w.&.T l s l | >.M h d ,.V b -XMX..P.|.3XrXeXN.<XvX",
"C.|.6XF.NXgXGXvX4XC.c.(.h.h.C.s.r N.aXeXHX:X1 r e.s.n.{ M C U.sX5.l J I ,.N M =XSXr ....+.7 a.y N.`.",
"j.x.Z.` GXaXFXSXiXe ' ).-.5Xf.] a.9 xXeXJX,X8 8 9 q.t ' / <.BXMX| C k ,.K l v  XVXw p p , 2 i 0.`.G.",
"B.+.V.B.GX2XSXFXj.(.#.Q 6 _.).x.s.a.S.JXxXnXM.r 9 q.q.] Y.jXhXsXsX^.^ 6.x l S *XSXu.q p 2 3 ; 4 ` V.",
"< i M.N.bXaX|.NX(.` &._ =._.OXZ.;XM.S.;XqXSXnX:Xq.0.0.` uXBX4.B 1.#XsX^. .m #XtXGXa.0.q.w 2 ) ) 6 4X",
"p.d.w t.u.K.P.+.` 3 E #.h.-.@.u.d.N.n.n.i ..B.GX2Xa.u.G.VX*XC z l N  .>. X=XsXOXGXm.r.r.q r e ' +.G.",
"H.p.7 r 1 ..w ; t u 2 U : 2 2 e i w 1 w.w < H.DXDXDXNXSXVX%.g z g ,.x k v ~.Q._.GX:Xa.q.0.a.< i.g.`.",
"B.L.dXeXd.y.....t ` ).e ) +.< +.< d.u i.J.u.;XHXGXFXGXGXCXT./ v |  .l l | *XB 2.SX;Xa.9 r.r.7 ) j.6X",
"F.GXHXGXN.u.w y.0.w `.) +., i p.i u.7 < 9XM.3XlXGXFXFXGXCXMXhX#XyX~.6.A }.1.m :.MXH.9 r.q.,Xx.A.XX6X",
"wXGXGXGXZXZXZXnXJXFXDXNXJXnX9X;XH.rXrXJXGXH.H.9XGXSXFXSXGXGXDXSXVXVXMXhXhX3.V / VXD.r.r.0.;XJ.N.B.V."
};
