/* XPM */
static char *cbf80667254b496df2e31228b428c77f9H9l8X9FE11Eqa5V[] = {
/* columns rows colors chars-per-pixel */
"50 50 256 2 ",
"   c #020203",
".  c #090407",
"X  c #1C0002",
"o  c #160705",
"O  c #090613",
"+  c #180318",
"@  c #18120C",
"#  c #27050B",
"$  c #2A0717",
"%  c #380014",
"&  c #251216",
"*  c #311410",
"=  c #050223",
"-  c #080335",
";  c #13032E",
":  c #360437",
">  c #330E2C",
",  c #2A343D",
"<  c #302733",
"1  c #52033B",
"2  c #71072F",
"3  c #285833",
"4  c #617633",
"5  c #07024A",
"6  c #16064D",
"7  c #090255",
"8  c #170457",
"9  c #031C44",
"0  c #380345",
"q  c #340654",
"w  c #29325C",
"e  c #1A0567",
"r  c #140E69",
"t  c #240265",
"y  c #2C0E70",
"u  c #2F2C6B",
"i  c #4C0A4A",
"p  c #790E53",
"a  c #452A4D",
"s  c #4E2C7C",
"d  c #2A4B51",
"f  c #2E7350",
"g  c #2D536C",
"h  c #396A6C",
"j  c #555D76",
"k  c #8C172C",
"l  c #D53531",
"z  c #E73231",
"x  c #A55A2C",
"c  c #EC6C3A",
"v  c #DB592D",
"b  c #891D41",
"n  c #D52E4E",
"m  c #EC2F4F",
"M  c #F82A69",
"N  c #F72F78",
"B  c #DA2C54",
"V  c #AB4D77",
"C  c #946974",
"Z  c #A36270",
"A  c #DB634B",
"S  c #E56B53",
"D  c #E25C78",
"F  c #FF7167",
"G  c #E35254",
"H  c #75AC2B",
"J  c #5EAD3A",
"K  c #509B4B",
"L  c #68A069",
"P  c #8DA539",
"I  c #969E59",
"U  c #DE904F",
"Y  c #FD8E52",
"T  c #D4B24D",
"R  c #ECB24F",
"E  c #FC9670",
"W  c #FEA867",
"Q  c #FFBB79",
"!  c #FFB562",
"~  c #D3BF60",
"^  c #BCD06D",
"/  c #9ED05C",
"(  c #D4CB6F",
")  c #FCC86D",
"_  c #C6DC6B",
"`  c #180985",
"'  c #3A1589",
"]  c #311090",
"[  c #33288D",
"{  c #3515AD",
"}  c #4A0E95",
"|  c #513193",
" . c #4903A8",
".. c #550EAD",
"X. c #6B19B0",
"o. c #5928A5",
"O. c #512CAC",
"+. c #7036B1",
"@. c #722986",
"#. c #3E4981",
"$. c #514D92",
"%. c #7C5493",
"&. c #7770B1",
"*. c #605A99",
"=. c #5A0BC7",
"-. c #7013C8",
";. c #6E31D1",
":. c #743BEA",
">. c #715ED0",
",. c #A31D8C",
"<. c #D43496",
"1. c #FC3686",
"2. c #FB3B97",
"3. c #FF2C89",
"4. c #E12CA7",
"5. c #855A9A",
"6. c #8E6B8C",
"7. c #A47B8F",
"8. c #884BB2",
"9. c #8074B2",
"0. c #FF4498",
"q. c #E74A8D",
"w. c #FA4FAE",
"e. c #ED6BB1",
"r. c #D95C9D",
"t. c #8D1BD1",
"y. c #902AD1",
"u. c #8D15EB",
"i. c #B228F6",
"p. c #A21DD9",
"a. c #CB34F7",
"s. c #D734DD",
"d. c #A855CE",
"f. c #A769C8",
"g. c #9F61DB",
"h. c #F959C9",
"j. c #FF5FD7",
"k. c #D272D3",
"l. c #FD79DA",
"z. c #FF6AD6",
"x. c #E951EC",
"c. c #CB7BE7",
"v. c #FB79F8",
"b. c #FB6CEA",
"n. c #5D899B",
"m. c #5AA981",
"M. c #759EAA",
"N. c #78C3A4",
"B. c #7FD49D",
"V. c #7FBACC",
"C. c #998192",
"Z. c #92ABB0",
"A. c #A3ADA8",
"S. c #F5AE8B",
"D. c #EDB2A2",
"F. c #E7A28F",
"G. c #A9EB8E",
"H. c #8CDDA5",
"J. c #9CEFB0",
"K. c #B2EFB1",
"L. c #91E78C",
"P. c #FCD78A",
"I. c #F8CC8C",
"U. c #CEF694",
"Y. c #FDE489",
"T. c #FFE898",
"R. c #FFDCA5",
"E. c #CBF0AE",
"W. c #FEE8A2",
"Q. c #FFF5AA",
"!. c #FBF7BA",
"~. c #D2C8A7",
"^. c #928CD8",
"/. c #92B4CB",
"(. c #A8B7CE",
"). c #ADB3F3",
"_. c #9998E4",
"`. c #D096D4",
"'. c #F694DA",
"]. c #F98CCE",
"[. c #FF86F9",
"{. c #FF97FF",
"}. c #F293F1",
"|. c #F6ADF1",
" X c #D796F3",
".X c #94D3CE",
"XX c #B8D3DC",
"oX c #ABCBD5",
"OX c #B1EED5",
"+X c #9BCAE7",
"@X c #B7D8E8",
"#X c #BBD5FB",
"$X c #AECFEC",
"%X c #B3ECEF",
"&X c #CAD8D9",
"*X c #FBD8D9",
"=X c #CEEED1",
"-X c #FCFAC7",
";X c #FAFCD8",
":X c #E7F0D2",
">X c #C6DAE9",
",X c #D6DAEA",
"<X c #C9D9F7",
"1X c #D7DCFA",
"2X c #CBCBF1",
"3X c #FEC6FA",
"4X c #FFDAFE",
"5X c #F0D4ED",
"6X c #C9E5E9",
"7X c #D7E7EA",
"8X c #DBF5E9",
"9X c #CAE7F7",
"0X c #DCECF4",
"qX c #D3E6FE",
"wX c #DBE3FE",
"eX c #D3EAFE",
"rX c #DBEBFE",
"tX c #D6E8F5",
"yX c #C8F8FB",
"uX c #DCF2FE",
"iX c #DCFAFE",
"pX c #D7F7F7",
"aX c #E2ECEA",
"sX c #E9F9E7",
"dX c #FDFFE4",
"fX c #F4FCED",
"gX c #FDFFEC",
"hX c #F3FFE5",
"jX c #E2ECFE",
"kX c #E6EAFB",
"lX c #EBF5F4",
"zX c #E3F4FE",
"xX c #ECF4FE",
"cX c #E3FCFE",
"vX c #ECFCFF",
"bX c #E5F8F4",
"nX c #FEF5F5",
"mX c #F4FEF3",
"MX c #FDFEF4",
"NX c #F4F4FE",
"BX c #FDF6FD",
"VX c #F4FDFE",
"CX c #FFFEFB",
"ZX c #FFFDF9",
"AX c #FEFAFE",
"SX c #FBFFFF",
"DX c #F9FEFF",
"FX c #FFFFFD",
"GX c #FFFEFD",
"HX c #FCFFFF",
"JX c #FEFFFF",
"KX c white",
"LX c #FFFEFF",
"PX c #FEFDFE",
"IX c #FDFDFE",
"UX c #FDECF7",
/* pixels */
"FXFXFXFXFXFXFXFXSXSXSXSXDXSXDXSXZXgXhXfXmXsXmXVXPXPXAXAXFXDXvXVXDXFXFXFXFXFXPXPXPXPXPXPXSXSXSXSXFXFX",
"FXFXFXFXFXFXFXFXFXSXFXSXSXDXDXFXPXMXmXZXmX8X8X&XVXPXAXAXAXSXVXVXSXFXSXFXFXFXFXFXZXZXPXZXFXSXSXFXFXFX",
"FXFXFXFXFXFXFXFXFXFXFXPXSXSXSXSXFXIXVXSXzX>X,X(.NXZXFXAXAXAXFXFXFXFXFXFXFXFXFXFXPXPXPXPXFXSXFXSXFXFX",
"FXFXFXFXFXFXFXFXFXFXFXPXFXFXFXSXNXIXNXSXkX,X0X>XwXkXAXAXAXBXBXAXFXFXFXFXFXFXFXFXPXPXZXPXFXFXFXFXFXFX",
"FXFXFXFXFXFXFXFXPXPXPXPXPXPXPXPXSXSXSXSXkX2XxXxX,XtXzXFXFXnXUXnXAXFXFXFXFXFXFXFXPXPXFXFXFXFXFXFXFXFX",
"FXFXFXFXFXFXFXFXPXZXZXZXZXZXZXPXSXSXFXNX,X2XkXvXqX9X0XvXFXAXnXZXAXFXFXFXFXFXFXFXPXPXAXFXAXFXFXFXFXFX",
"FXSXFXFXFXFXFXFXZXPXPXZXZXZXZXZXMXmXmXNXaX,XxXvXcXyX6XpXSXZXnXnXZXFXFXFXFXFXFXFXPXFXFXFXFXFXAXFXFXFX",
"FXFXFXSXFXFXFXFXPXZXZXZXZXZXZXZXMXmXfXFXnXkXVXVXcX9X@X6XbXmXgXnXFXFXFXSXFXSXSXSXFXFXFXFXAXFXFXAXFXFX",
"FXFXFXSXFXFXFXFXZXNXnXPXFXZXZXZXmXsXVXSXxXvXVXcX%X9X$XoXXX7XkXIXSXZXSXSXSXDXDXVXSXIXSXAXFXAXZXnXFXFX",
"SXFXFXAXAXSXSXAXFXFXFXFXAXmXZXIXSXDXlXaX,XtXrX<X@X@XoX/.$XeXzXvXZXPXSXVXVXVXDXDXDXVXVXIXFXFXZXPXAXFX",
"FXFXFXFXFXIXFXSXFXFXSXSXDXDXSXVXvXzXuXrXeXuX9XXX<X<X>X$X<XrXzXVXVXVXSXVXDXDXVXVXVXvXVXNXAXFXPXPXFXFX",
"PXFXAXIXFXFXSXSXVXVXVXVXDXDXDXzXqXqXqX9XyXiX6X(.(.2X5X,X1XjXcXvXmXlXlXlXbXzXiXuXvXVXVXSXFXFXPXZXFXFX",
"ZXPXZXPXPXPXSXSXSXVXVXvXDXVXjX,X$X$X$X@X%XpXsX=X~.*X*X*XUXUXaXsXbXaX=X&X&X6X6X7XuXcXVXSXSXFXPXZXFXFX",
"ZXZXPXPXPXSXDXDXSXVXvXvXvXeX>XXX@X@X%X%XOXOX=X~.~.D.S.S.*X-X!.=X:X7X7X7X7XtX6X@X6X0XzXDXSXFXPXPXFXFX",
"ZXZXZXZXPXSXSXDXVXzXxXcXrX@X@X>XiXyXyXOXB.L L x x x v U Q T.W.!.=XsXbXmXcXcXtX6X9XuXcXVXSXFXFXFXFXFX",
"MXZXZXPXFXFXSXDXtXtXrXiX9X$X@XyX%X.XN.m.K 3 4 P U R Y Y W ) P.!.;X;X:X8XbXiXiXiXiXcXvXDXPXZXFXFXFXFX",
"fXfXPXFXBXBXBX7X6X6XiXyX.X+X%X$XM.L h d 3 , * Z F.G F F E E S.R.W.Q.Q.-XsX7XeXvXcXuXaXsXdXgXAXBXAXFX",
"mXfXZXFXBXBXBXkX,XiXyXyX+X%XV.n.h 3 d d , < 1 Z q.n n n G G E S.I.T.T.W.;XbXwXqXzXuXaXsX;XgXAXBXFXFX",
"MXmXSXFXAXAXNXkX>XiX%XyX.XM.g g d , , , < > % V e.n B n n l G G E I.Y.T.;XlX7X6XiXiXkXsX;XhXFXAXAXFX",
"DXDXSXFXAXFXIX0X6XpX%X%X*.g 9 w j w < < & % % V ].M N M M m m z A E I.T.-X;XaXlXpXiXcXbXhXmXFXAXFXFX",
"DXVXFXFXDXSXVX8X>X9XcXZ.u - u u 5.a + $ $ $ % V ].<.2.2.N M m m n S W I.!.-X;XsXsXpXiXpXsXmXSXSXFXFX",
"SXVXAXSXDXDXvX6XXXpXyX$.w u | u %.i + + & & % 6.'.4.h.2.2.3.M m B l A W R.!.!.-X=X8XpXyX8XbXDXVXFXFX",
"AXIXFXSXDXVXbX6XXXiX).r [ o.X.y 5.q + & @ @ o C |.k.b.h.w.2.1.M M m l c Q R.Q.Q.:X8XyXeX8XVXDXNXFXFX",
"FXNXSXSXZXVX8X@X#XiX&.7 o.;.} } 8.i + @ o o o 6.|.c.v.b.j.w.0.N M M z z Y I.T.Q.-XsXiXeXcXDXSXIXFXFX",
"AXAXZXmXVXmXcX9X#X).] ` :.;. . .g.0 + o @ . @ C.4X{.{.[.v.h.0.0.3.M m z v ! ) ) !.hXvXvXDXlXFXFXFXFX",
"AXFXPXMXmXVXcXrX#X).[ { ;.=.=.-.d.0 $ X @ o . 6.4X|.{.{.[.z.w.0.3.N m z v Y ) ) Q.dXzXxXDXNXAXBXFXFX",
"AXFXPXfXmXVXcXuX1X_.` { :.=.=...c.: $ X o * # 7.4X|.{.[.[.l.w.w.0.2.M l z c R R T.;XxXrXVXIXAXBXFXFX",
"IXAXPXMXfXmXVXzX2XV.{ { ;.=.=.;.k.> # # # * X C 3X`. X'.l.z.e.w.2.1.m l l c ! ! Y.;XlXwXNXAXAXBXAXFX",
"IXFXPXZXMXMXvXxXvX_.` ] O. .-.8.`.: + X # # X 7.4X|.|.'.'.].e.r.w.q.G n l A W R ( -XmXkXVXSXAXAXFXFX",
"IXFXPXMXgXPXVXjX1X9.` [ >.g.c.f.(.> . o X X # C nX*X5X3X|.|.'.'.e.e.D D A S ! T ~ !.fX0XDXFXAXAXFXFX",
"IXIXSXnXZXFXNXwX).).$.} | t q q , O   O & . o & < & & > > : : 1 1 2 2 k 2 x ! T ( -XsX7XVXSXBXFXFXFX",
"AXNXZXMXPXFXxX1X2X).[ t y y q 0 = O     .   . & * # > > : : 0 i 1 2 2 p 2 x ) ~ ( -X:X7XDXSXBXAXAXFX",
"ZXfXZXZXVXVXcX>X<X1Xs 6 o.+.g.d.`.>     . .   C.BX'.}.[.v.v.v.x.h.h.e.<.D.R.^ / U.E.8XxXNXnXBXNXFXFX",
"gXgXMXDXvXvXuX>XrXNX9.y q +.X...f.: O     @   7.3Xk.x.x.x.a.s.s.4.<.V 5.D.( P _ U.=X7XVXFXFXBXAXFXFX",
"gXZXmXDXVXcX9X6XzXjXwXu t o.+.o.+.q - O   O O 5.{.d.s.i.a.a.s.p.,.p p Z Y./ H U.K.OX0XvXSXFXAXZXFXFX",
"MXMXMXVXDXzX>X9XvXwXNX*.6 t o.o.+.q - O   @ O %. Xy.i.i.a.a.p.y.@.1 Z ~.^ P / G.=X6XeXzXVXSXZXZXFXFX",
"gXPXZXVXDXcX6X9XqXzXkX).- 7 y o.*.t = O   . . %.c.y.u.u.i.u.u.X.s s ~.^ H J G.K.OX9XeXrXxXDXmXgXPXFX",
"nXZXAXVXVXVXtX>X@XqXqXjX$.6 8 [ | 8 = O   . O %.g.-.u.u.u.-.X.| @.A.I H H / G.OXoX9XuXvXDXSXfXdXZXFX",
"nXPXFXSXVXVXuXoX>X6XiXqX).w 8 5 y 6 - ; . O + @.d...X.-.-.....| *.N.K J / L.OXOX@XpXvXDXSXFXdXdXMXFX",
"ZXZXFXAXxXDXuX(.@X6XuXcXpX_.g u 5 8 9 - = ; ; | +.'  . . . .O.O.h f K L.J.B.OX.X9XcXDXAXNXSXdX;XZXFX",
"nXAXFXFXIXDX0X@X(.6XcXcXuX<X).M.7 7 r ` r e e e } ' ] } { O.{ [ g m.B.J.%X.X/.#XvXDXAXAXBXFXdX;XMXFX",
"AXFXAXAXVXIXxX7XA.XX0XiXcXcX<X).*.7 7 r [ y y ' y ' } } { [ [ #.h N..X.X%X$X+X@XvXMXAXBXBXAXgXdXZXFX",
"PXPXFXNXNXFXDXxX&X6X7X0XuXuXeX1X1X^.$.y ` y e 8 t t 6 6 7 8 y w V.OX%X+X+X#X#X>XVXMXZXAXAXAXMXgXPXFX",
"ZXPXAXIXAXFXFXSXVXvXaXbX7X6X,X<X1X1X#X_.^._.>.s 6 w j u w g &.(.yXyX%X+X$X#XqXwXZXgXnXAXAXFXZXZXFXFX",
"MXZXPXPXAXFXAXFXFXSXmXDXNXkX0XkX0X,X,XkXBXBXkX1X2X(.C./.&XjXxXbX8XpX<X#X9XrXzXvXAXZXZXZXZXPXFXFXFXFX",
"gXZXZXPXAXAXAXAXFXAXFXFXFXVXNXxXSXmXlXlX7X,XkXVXFXxXzXuXbX0XaXaX6X&X<XeXcXcXvXDXAXZXZXMXgXPXDXDXFXFX",
"MXmXZXFXAXAXBXBXAXAXAXFXAXFXNXNX7XVXDXZXaX,X,X1X2X#X#XqXrX0X7X&X5X2X1XvXVXmXmXVXSXAXFXMXgXMXVXDXFXFX",
"MXMXMXFXFXAXFXAXAXAXFXZXAXFXAXFXSXVXlXMXPXAXxXzXrXrXrXxXVXZXZXNXNXkXxXxXfXhXfXVXFXAXFXmXgXmXVXVXSXFX",
"PXPXPXFXFXFXFXFXAXFXAXAXFXFXFXFXIXIXSXFXFXSXSXIXVXVXIXDXSXSXFXFXFXFXFXSXZXZXVXPXFXFXFXFXPXPXSXSXFXFX",
"PXPXFXPXFXFXFXFXFXFXFXFXAXFXSXFXIXIXFXFXFXFXIXIXIXIXAXFXFXFXFXFXFXFXFXSXSXFXPXPXFXFXFXFXFXPXFXFXFXFX"
};
