/* XPM */
static char *result[] = {
/* columns rows colors chars-per-pixel */
"50 50 6 1 ",
"  c #B6B6B6",
". c #B7B7B7",
"X c gray72",
"o c #B9B9B9",
"O c gray73",
"+ c #BBBBBB",
/* pixels */
"oooooooooooooooXoOoOOOOoO+O++++++++++O++O+++++++++",
"oooooooooooooooXoOoOOOOoO+O++++++++++O++O+++++++++",
"oooooooooooooooXoOoOOOOoO+O++++++++++O++O+++++++++",
"oooooooooooooooXoOoOOOOoO+O++++++++++O++O+++++++++",
"oooooooooooooooXoOoOOOOoO+O++++++++++O++O+++++++++",
"XXXXXoXooooooooXoOoOOoOoO+OOOO+OOOO++O++O+++++++++",
"oooooXoooooooooXoOoOOOOoO+++++O++++O+O++O+++++++++",
"XXXXXoXooooooooXoOoOOoOoOOOOOO+OOOO++O++O+++++++++",
"....XoXooooooooXoOoOOoOoXooooO+OooO+O+OO+O++++++++",
"XXX.XoXooooooooXoOoOOoOoXoOOoO+OooO+OO++O+++++++++",
"XXX.XoXooooooooXoOoOOoOoXoOOoO+OooO+O+++++++++++++",
"XXX.XoXooooooooXoOoOOoOoXoOOoO+OooO+O+++++++++++++",
"XXX.XoXooooooooXoOoOOoOoXoOOoO+OooO+O+++++++++++++",
"..X.XoXooooooooXoOooooOoXoOOoO+OooO+O+++++++++++++",
"XXX.XoXoXooooooXoOOOOoOoXoOOoO+OooO+O+++++++++++++",
"....XoXXoXoooooXoooooOOoXoOOoO+OooO+O+++++++++++++",
"  .XXoooXoooooXoXXXXoOOoXoOOoO+OooO+O+++++++++++++",
". ..XXooXooooooXoooXoOOoXoOOoO+OooO+O+++++++++++++",
". .XXXooXooooooooooXoOOoXoOOoO+OooO+O+++++++++++++",
". .XXXooXooooooooooXoOOoXoOOoO+OooO+O+++++++++++++",
". .XXXooXooooooooooXoOOoXoOOoO+OooO+O+++++++++++++",
". ..XXooXoXooooooooXoOOoXoOooO+OooO+O+++++++++++++",
". .XXoooXooooooooooXoOOoXoOOoO+OooO+O+++++++++++++",
". ..XXooXoXooooooooXoOOoXoOooOOOooO+O+++++++++++++",
" .  ..X.XoXooooooooXoOOoooOoOoooOOO+O+++++++++++++",
". . .X..XoXooooooooXoOoOOOoOoOOoO++O++++++++++++++",
"... .XX.XoXooooooooXoOooooOoOOOoO+O+O+++++++++++++",
"... .XX.XoXooooooooXoOoOOOOOOOOoO+O+++++++++++++++",
"... .XX.XoXooooooooXoOoOOOOOOOOoO+O+++++++++++++++",
"... .XX.XoXooooooooXoOoooOoOOOOoO+O+++++++++++++++",
"... .XX.XoXooooooooXoOOOOoOOOOOoO+O++++++++++O++O+",
"... .XX.XoXooooooooXoooooOoOOOOoO+O+++++++++O+OO+O",
"... .XX.XoXoooooooXoXXXXoOoOOOOoO+O++++++++++O++O+",
"... .XX.XoXooooooooXoooXoOoOOOOoO+O++++++++++O++O+",
"... .XX.XoXooooooooooooXoOoOOOOoO+O++++++++++O++O+",
"... .XX.XoXooooooooooooXoOoOOOOoO+O++++++++++O++O+",
"... .XX.XoXooooooooooooXoOoOOOOoO+O++++++++++O++O+",
"... .X..XoXXoXoooooooooXoOoOOOOoO+O+O++++++++O++O+",
"... .XX.XoooXooooooooooXoOoOOOOoO++O+++++++++O++O+",
"... ....XXXXoXoooooooooXoOoOOOOoOOO+O++++++++O++O+",
".. .    . .XoXoooooooooXoOoOOOoOooO+O++++++++O++O+",
"... ..... .XoXoooooooooXoOoOOOOoOoO+O++++++++O++O+",
"...... .. .XoXoooooooooXoOoOOOOOOoO+O++++++++O++O+",
"......... .XoXoooooooooXoOoOOOOOOoO+O++++++++O++O+",
"......... .XoXoooooooooXoOoOOOOOOoO+O++++++++O++O+",
"......... .XoXoooooooooXoOoooOOoooO+OO+OOOO++O++O+",
"......... .XoXoooooooooXoOOOOooOOoO+++O++++O+O++O+",
"......... .XoXoooooooooXoooooOOoooOOOO+OOOO++O++O+",
"......... .XoXooooooooXoXXXXoOOoXoOooO+OooO+O+OO+O",
"......... .XoXoooooooooXoooXoOOoXoOOoO+OooO+OO++O+"
};
