/* XPM */
static char *result[] = {
/* columns rows colors chars-per-pixel */
"50 50 155 2 ",
"   c #1E1D32",
".  c #211E33",
"X  c #222034",
"o  c #2C2336",
"O  c #2E2C3F",
"+  c #332337",
"@  c #392637",
"#  c #362836",
"$  c #3D2A37",
"%  c #352438",
"&  c #3D2539",
"*  c #362B3C",
"=  c #3E2A39",
"-  c #3C303B",
";  c #412B37",
":  c #41263A",
">  c #452B3A",
",  c #4B2D3A",
"<  c #512F3B",
"1  c #4C3137",
"2  c #45343B",
"3  c #4B353A",
"4  c #47383F",
"5  c #4E3B3E",
"6  c #53333A",
"7  c #5B343B",
"8  c #523C3D",
"9  c #5C3B3C",
"0  c #61373C",
"q  c #633A3B",
"w  c #6B3E3B",
"e  c #703F39",
"r  c #57413F",
"t  c #5E403F",
"y  c #65413D",
"u  c #6F413B",
"i  c #74413B",
"p  c #7D463C",
"a  c #7F483D",
"s  c #333143",
"d  c #3D3241",
"f  c #413243",
"g  c #493644",
"h  c #473945",
"j  c #4C3C43",
"k  c #433749",
"l  c #46394B",
"z  c #4B3D4A",
"x  c #533D42",
"c  c #5D3F43",
"v  c #503F4A",
"b  c #534043",
"n  c #5C4243",
"m  c #5A464B",
"M  c #5F494E",
"N  c #534C57",
"B  c #5F4D54",
"V  c #5F5156",
"C  c #55515D",
"Z  c #634644",
"A  c #694740",
"S  c #654945",
"D  c #6C4B43",
"F  c #6B4D48",
"G  c #734D44",
"H  c #7A4E45",
"J  c #704D4A",
"K  c #6E534F",
"L  c #745145",
"P  c #7A5446",
"I  c #7F5947",
"U  c #74524A",
"Y  c #7C564B",
"T  c #7D584D",
"R  c #604F50",
"E  c #615559",
"W  c #775953",
"Q  c #7E5D54",
"!  c #735E5D",
"~  c #785F58",
"^  c #7B615A",
"/  c #5E5861",
"(  c #64616B",
")  c #756262",
"_  c #746B6F",
"`  c #796D6E",
"'  c #686773",
"]  c #6A6872",
"[  c #756E74",
"{  c #786E70",
"}  c #777075",
"|  c #787075",
" . c #79747B",
".. c #7F787D",
"X. c #845444",
"o. c #815947",
"O. c #8E5C47",
"+. c #83554A",
"@. c #885749",
"#. c #835A4A",
"$. c #8B5C4A",
"%. c #935B46",
"&. c #935E4C",
"*. c #995F48",
"=. c #835E53",
"-. c #8B5D51",
";. c #905F51",
":. c #8E634D",
">. c #94624C",
",. c #9B644B",
"<. c #9D6A4E",
"1. c #826056",
"2. c #8E6352",
"3. c #936654",
"4. c #9C6652",
"5. c #976855",
"6. c #9C6B56",
"7. c #9E6D58",
"8. c #A1674B",
"9. c #A36B4D",
"0. c #AA6E4D",
"q. c #A6704F",
"w. c #AC714F",
"e. c #B0734F",
"r. c #A46D56",
"t. c #A86E50",
"y. c #A26E59",
"u. c #A77050",
"i. c #AC7350",
"p. c #A57159",
"a. c #AC755B",
"s. c #B27651",
"d. c #B57952",
"f. c #BC7D54",
"g. c #B0775C",
"h. c #B1785D",
"j. c #C08055",
"k. c #807F87",
"l. c #828087",
"z. c #838188",
"x. c #88868B",
"c. c #8B898E",
"v. c #8C8B91",
"b. c #918E92",
"n. c #939195",
"m. c #959499",
"M. c #9D9EA1",
"N. c #A4A5A7",
"B. c #A6A6A9",
"V. c #ABABAD",
"C. c #AEAEB0",
"Z. c #B4B4B5",
"A. c #B7B8B7",
"S. c #B7B7B8",
"D. c #B9B9B9",
/* pixels */
"D.D.D.D.D.D.D.D.S.D.S.D.S.D.D.D.D.S.V.n...E W <.9.q.6.T V  .n.V.D.D.D.D.D.D.D.D.D.D.D.D.D.D.D.D.D.D.",
"D.D.S.D.A.D.S.A.A.D.A.A.S.D.S.S.V.m. .) W F U d.f.f.f.I F W ^ } v.V.D.D.D.D.D.D.D.D.D.D.D.D.D.D.D.D.",
"D.D.D.D.D.S.S.D.A.A.S.S.S.Z.C.n.| ) =.5.7.Y U d.j.j.d.#.U 6.5.K N ] n.V.D.D.D.D.D.D.D.D.D.D.D.D.D.D.",
"D.S.D.A.S.D.D.A.S.D.S.A.C.n.{ ! =.5.p.a.p.T P d.f.f.f.I U p.h.1.Z P ^ _ n.V.D.D.D.D.D.D.D.D.D.D.D.D.",
"D.S.S.D.S.D.S.A.S.S.V.n.[ ! =.5.p.a.a.a.p.T P d.f.f.f.I U 7.h.5.O.9.i.2.~ { b.V.D.D.D.D.D.D.D.D.D.D.",
"S.D.A.S.A.A.A.D.V.b.[ ! =.5.r.r.p.a.a.h.a.T P d.j.j.d.o.U p.h.4.,.s.f.f.u.2.~ { m.Z.D.D.D.D.D.D.D.D.",
"D.S.S.S.S.D.C.v.[ ) =.5.y.6.>.>.r.a.a.a.5.S G d.f.f.f.I n 2.h.<.$.i.f.f.f.f.0.:.^ } x.V.D.D.D.D.D.D.",
"S.D.S.S.C.v.{ ! =.5.y.h.p.4.4.p.a.a.5.T F x L d.f.j.f.I n +.-.Y L 0.j.f.f.f.f.f.u.3.^ | c.V.D.D.D.D.",
"S.Z.V.c.[ ! =.5.p.a.h.a.a.p.a.p.7.+.F U T L P d.f.j.f.I F &.-.F D <.f.f.f.f.f.f.f.f.q.:.^ { c.B.D.D.",
"M.b.` ^ U &.p.a.a.a.a.a.h.p.6.:.F n J y.y.Y L d.f.f.f.o.A 3.r.-.+.+.&.8.d.f.f.f.f.j.j.f.i.:.1.` N.B.",
"/ ^ :.9.>.8.a.a.a.a.a.a.5.#.o.>.$.G =.a.p.T P d.j.j.f.o.D &.4.r.y.3.T P >.e.f.f.f.f.f.f.f.f.w.:.^ / ",
"4 $.f.s.o.>.a.a.a.a.3.Q U P ,.d.s.+.2.a.p.T P d.f.f.h.o.J r.r.r.a.h.5.2.3.,.8.e.f.f.f.f.f.f.j.f.<.8 ",
"b >.0.,.y $.a.a.3.T U I >.q.f.f.i.+.-.h.p.Y U d.f.f.d.I J y.h.a.a.a.h.a.p.r.<.,.>.<.f.f.f.f.f.f.q.r ",
"b >.9.8.A W 5.T U P >.w.f.j.f.f.t.+.-.p.2.n P d.j.f.f.I Z -.y.a.a.a.a.a.a.a.u.6.#.L o.<.d.d.f.f.q.r ",
"b <.f.i.n n L P >.w.f.f.f.f.f.f.i.P J T U n U d.f.f.f.I t F T 2.7.a.a.a.a.a.a.a.7.F n I :.<.d.f.u.r ",
"b <.u.:.t L :.i.f.f.f.f.f.f.f.f.8.G A +.>.o.P d.f.j.f.o.P >.#.L +.4.a.a.a.a.a.h.7.U L ,.o.P #.<.<.r ",
"j Y X.$.>.e.j.f.f.f.f.f.j.s.9.8.<.&.,.d.s.P P d.f.f.f.I P d.f.<.&.&.&.2.6.a.a.h.y.U #.j.s.>.o.U P 4 ",
"2 P 8.w.e.e.e.f.f.f.f.d.<.o.o.,.s.f.f.w.<.p P d.f.f.f.#.P d.f.f.f.s.:.P $.r.y.a.y.+.$.j.f.f.d.<.L $ ",
"j <.f.f.0.,.8.e.d.d.<.o.L I 9.f.f.j.s.8.,.X.P d.f.f.f.o.P d.j.f.f.f.s.0.%.@.+.2.5.+.%.f.f.f.f.s.O.3 ",
"b <.f.f.f.f.8.,.>.I G P <.f.f.f.f.f.f.f.d.#.P d.f.j.f.I Y s.j.f.f.f.f.d.,.$.W F F Z @.f.f.f.f.w.O.3 ",
"b <.f.f.f.i.<.Y L r P d.f.f.f.f.f.f.f.f.f.o.P e.j.f.d.o.L s.j.f.f.f.f.s.8.4.p.7.W Z J 8.s.f.f.f.0.8 ",
"b 6.f.d.i.o.G T 2.F P f.f.f.f.f.f.f.f.j.f.#.I d.f.f.f.o.u q.j.f.f.f.f.s.*.5.a.a.p.4.-.+.@.4.i.f.u.r ",
"x ,.w.9.,.:.2.p.a.P #.f.f.f.f.f.f.f.f.j.d.o.L w.f.f.d.P L i.j.f.f.f.f.s.@.;.a.a.a.g.p.6.+.n U 4.>.r ",
"j $.*.<.r.p.a.a.a.>.,.f.f.f.f.f.f.f.f.f.s.I 9 P >.>.#.r y q.f.f.f.f.j.t.+.-.h.a.a.a.a.a.-.c U U L 2 ",
"h #.y.a.a.a.a.a.a.>.8.s.0.0.d.f.f.f.d.8.%.9 & : ; ; = % ; P 8.e.f.f.j.w.+.-.a.a.a.a.a.g.$.Z 6.6.U - ",
"j 3.a.a.a.a.a.a.a.>.%.8.8.0.f.f.s.8.X.q , & % . + + o + & 1 9 X.,.i.f.w.+.-.h.a.a.a.a.r.P Z 7.h.3.j ",
"j 3.a.a.a.a.a.a.a.>.%.8.s.f.e.8.X.y , @ + & & + % % + & : o # ; c X.8.8.H #.a.a.a.p.<.&.U Z 7.a.6.b ",
"j 3.a.h.h.a.a.a.p.I $.d.s.8.X.w > ; : : . : : + & & + : : + & : = ; q i c T a.a.a.a.y.r.=.Z 7.g.5.x ",
"j 3.h.a.a.a.a.a.a.J L ,.X.9 : % # % & % + % % + + + + % & o % % % % % % # Z >.r.a.a.a.a.2.Z 7.a.5.x ",
"v 3.y.4.y.a.a.a.r.S 6 9 , % + + + + + + + % + + % + + % + o % % % & + . . ; 9 G &.r.a.a.1.Z 7.a.6.8 ",
"g +.*.&.r.a.y.>.H 1 + & & : : : : : : & : : > < 7 7 < , : : : : : : : : : : & ; 9 G &.r.$.Z 7.a.5.x ",
"g #.r.r.r.4.H 9 ; % & > : : : f > > > > < g w e p e e q 7 , > : : > > : > > : & & > 7 H G n 7.h.5.x ",
"j 3.r.>.X.7 : o + & & : & & & : & & & > 7 0 w e e w i w q 9 > & & & : & & & : & & % % & = 2 @.y.5.x ",
"j Y H 9 > & % o + + + % % + + + + + + % = ; ; ; ; ; ; ; ; ; & + % + + % + % + % + + . + % # 7 H Y 5 ",
"- 6 ; & & : & + % & & : & & : , 3 , 1 , , , , > , , , , , > % o + % + . + o % @ & & . & > & @ = 1 $ ",
"' C * & : : & + & > : : & @ ; 1 6 6 6 6 9 w 0 q G i i i q , x Z m c Z Z n Z x ; : : & & : > & * N ( ",
"N.l.k & > > & % & > : > x Z Z Z A S S F A 9 0 7 0 q q 0 < c T A x n b m n S U n : & % & : f : f ..B.",
"Z.v.l & > : & % : 7 7 8 F F x x x b b A U 7 7 7 0 w q 7 : J F * o o o o o * F F ; , , , < , : f k.D.",
"Z.c.k & : , : % , e u 9 S 4 . X X X X 4 F 6 0 w p p p 0 ; F 8 . . . . .     5 S ; < < 0 e 0 : f z.Z.",
"Z.c.k > c 0 0 & , w 0 9 S 4   . X X . 2 U 3 6 0 w e w 7 = F 5 . . . . X X   5 F , 1 < 0 p i 7 g k.Z.",
"Z.v.j 7 u p w $ > 0 6 7 S 3     . .   2 L 1 7 7 q q 0 < $ L 8 X   X X X     r D ; , 1 q p p u r z.Z.",
"Z.v.m w p p w & < e w c D 8 o o o o o 8 P 8 w i G i i 0 = L 8 .   X X X     r D ; , 1 q p p i n k.Z.",
"Z.c.m i p p w $ < e w 9 L L r n c Z c J L 6 i p e e i 0 = G 5 X X X X X     r S 1 6 6 9 a a i r z.S.",
"Z.c.n i a a w $ > 0 0 7 r D y D D A D A t 6 7 q 0 w 0 6 $ L 8 .   X X X X   r D > 6 6 q p a e n z.Z.",
"Z.c.m w a a w $ < w w q y 1 1 7 0 0 0 0 0 w w w w w w c = L 5 X X X X X X   8 u ; 6 6 q p a e c z.Z.",
"Z.c.n e a p w $ < e p H p u 0 i p p p p p p p p p p p 0 = L 5 X   X X X X   8 D ; 6 6 9 p a i n k.Z.",
"Z.v.m w a a w : , q w w w 0 7 q w w w w w w i w w i w < $ L 5 X X X X X .   r D 1 1 1 0 p p i c l.A.",
"Z.c.m u a p q : , 0 q q 0 q 0 q 0 0 0 0 0 0 0 0 0 0 0 < $ L 5               5 D ; , 1 q p p i n k.A.",
"Z.x.m e a p w $ > w u u e w u e w u u u w u e w u u w 7 * L r O s s s s s O b D - 1 3 q p p i b l.Z.",
"Z.n.B q i u q h z m m m m m m m m n m m m m m m m m n b d S m ] k.k.k.k.z.' R n d b z t u i u M x.A."
};
