/* XPM */
static char *result[] = {
/* columns rows colors chars-per-pixel */
"50 50 126 2 ",
"   c #6C3F38",
".  c #7C3C3C",
"X  c #7B691C",
"o  c #6F643E",
"O  c #754F4F",
"+  c #745050",
"@  c #785757",
"#  c #765E5E",
"$  c #7F6D6D",
"%  c #7E7474",
"&  c #B61B1B",
"*  c #BB1E1E",
"=  c #BE201F",
"-  c #812625",
";  c #8B2D2D",
":  c #9B2727",
">  c #942927",
",  c #912F2E",
"<  c #873131",
"1  c #8F3736",
"2  c #9C3331",
"3  c #933937",
"4  c #933B39",
"5  c #9E3A3A",
"6  c #A32625",
"7  c #A82423",
"8  c #A22826",
"9  c #AA2827",
"0  c #A72C2B",
"q  c #BE2020",
"w  c #BF2C2A",
"e  c #B3302E",
"r  c #A43434",
"t  c #A33B3B",
"y  c #B43330",
"u  c #BF3633",
"i  c #BB3B39",
"p  c #C62524",
"a  c #C92725",
"s  c #CB2927",
"d  c #CD2B29",
"f  c #D32D2B",
"g  c #DB322E",
"h  c #C03632",
"j  c #CF3835",
"k  c #C53C3B",
"l  c #C93B39",
"z  c #DB3531",
"x  c #E23733",
"c  c #E53834",
"v  c #E83B37",
"b  c #E63F3D",
"n  c #E93C39",
"m  c #8A451C",
"M  c #97403E",
"N  c #98413F",
"B  c #E5403F",
"V  c #EE403E",
"C  c #994340",
"Z  c #914A49",
"A  c #865656",
"S  c #895656",
"D  c #815959",
"F  c #9F5353",
"G  c #A34040",
"H  c #A34D4C",
"J  c #B15252",
"K  c #816262",
"L  c #8A6767",
"P  c #856D6D",
"I  c #8D6A6A",
"U  c #936768",
"Y  c #837272",
"T  c #897272",
"R  c #907272",
"E  c #917C7B",
"W  c #CC4645",
"Q  c #D24645",
"!  c #A58E04",
"~  c #BAAE19",
"^  c #978C2B",
"/  c #9C953F",
"(  c #A19622",
")  c #ACA424",
"_  c #BAB221",
"`  c #A5A03E",
"'  c #C6B709",
"]  c #C5B90B",
"[  c #C8BE0E",
"{  c #D7C905",
"}  c #E0D205",
"|  c #ECDA01",
" . c #9B9442",
".. c #89855D",
"X. c #928D53",
"o. c #9B995D",
"O. c #8E8360",
"+. c #8D807F",
"@. c #8D8B7D",
"#. c #9A9474",
"$. c #929078",
"%. c #999678",
"&. c #9C9C7C",
"*. c #938181",
"=. c #9A8686",
"-. c #948D8D",
";. c #97908F",
":. c #9C9494",
">. c #9F9996",
",. c #9D9999",
"<. c #A09797",
"1. c #A19999",
"2. c #A3A196",
"3. c #A3A398",
"4. c #A6A4A2",
"5. c #A9A6A3",
"6. c #A9A9A7",
"7. c #AEAEAE",
"8. c #B0AEAE",
"9. c #B1B1AE",
"0. c #AFB0B0",
"q. c #B6B6B6",
"w. c #B8B7B7",
"e. c #B7B7B9",
"r. c #B6B8B8",
"t. c #BABABA",
/* pixels */
"t.t.t.r.t.w.t.r.t.t.w.r.t.t.t.w.t.t.t.t.t.t.t.t.t.t.t.t.t.t.t.t.t.t.t.t.t.t.t.t.t.t.t.t.t.t.t.t.t.t.",
"t.t.w.t.t.t.t.t.r.t.t.t.t.w.t.r.t.t.r.t.t.t.t.t.t.t.t.t.t.t.t.t.t.t.t.t.t.t.t.t.t.t.t.t.t.t.t.t.t.t.",
"w.t.t.t.r.t.w.t.t.w.t.t.t.t.r.w.t.t.t.t.t.t.t.r.t.t.t.t.t.t.t.t.t.t.t.t.t.t.t.t.t.t.t.t.t.t.t.t.t.t.",
"t.r.t.w.t.w.t.t.t.t.w.r.w.t.t.w.w.t.t.t.t.t.t.t.t.t.t.t.t.t.t.t.t.t.t.t.t.t.t.t.t.t.t.t.t.t.t.t.t.t.",
"t.t.t.t.t.r.t.t.w.t.t.t.t.t.t.r.t.t.t.t.t.t.t.t.t.t.t.t.t.t.t.t.t.t.t.t.t.t.t.t.t.t.t.t.t.t.t.t.t.t.",
"w.r.w.r.w.t.w.w.t.t.w.t.w.r.t.w.t.t.r.t.t.t.t.w.t.t.t.t.t.t.t.t.t.t.t.t.t.t.t.t.t.t.t.t.t.t.t.t.t.t.",
"t.t.r.t.t.t.t.t.t.r.t.r.t.t.t.w.t.t.t.t.t.t.t.t.t.t.t.t.t.t.t.t.t.t.t.t.t.t.t.t.t.t.t.t.t.t.t.t.t.t.",
"w.w.w.w.w.r.w.t.t.w.t.t.w.t.t.w.w.t.t.t.t.t.t.t.t.t.t.t.t.t.t.t.t.t.t.t.t.t.t.t.t.t.t.t.t.t.t.t.t.t.",
"w.w.w.w.w.r.t.r.t.r.t.w.t.w.r.t.t.t.w.t.t.t.t.t.t.t.t.t.t.t.t.t.t.t.t.t.t.t.t.t.t.t.t.t.t.t.t.t.t.t.",
"w.r.r.w.w.t.w.w.w.w.t.w.w.t.t.r.t.t.t.t.t.w.t.t.t.t.t.t.t.t.t.t.w.t.t.t.t.t.t.t.t.t.t.t.t.t.t.t.t.t.",
"w.t.r.w.t.t.w.t.r.r.t.t.w.w.w.t.w.t.t.t.t.t.t.w.t.w.9.0.7.8.q.q.t.t.t.t.t.t.t.t.t.t.t.t.t.t.t.t.t.t.",
"w.r.r.w.r.w.t.w.5.2.5.0.t.t.t.e.t.t.r.t.t.w.8.:.=.R U U I I K $ ,.e.t.t.t.t.t.t.t.t.t.t.t.t.t.t.t.t.",
"r.t.r.w.r.r.t.6.O.^ / %.3.0.q.r.t.r.t.t.w.,.P H i y y y e y 0 - O 1.t.t.t.t.t.t.t.t.t.t.t.t.t.t.t.t.",
"w.w.r.w.w.t.t.8.#.) ] ~  ...@.6.w.w.t.t.,.@ t k r 4 4 N N N 4 > : S 4.t.t.t.t.t.t.t.t.t.t.t.t.t.t.t.",
"w.w.r.q.r.t.w.t.9.&.` [ { ] ( X.$.:.4.6.Y t i Z P ;.1.<.1.1.;.K 2 , w.t.t.t.t.t.t.t.t.t.t.t.t.t.t.t.",
"w.w.w.w.r.t.w.t.t.q.2.o._ } | ' X   + % D u , # -.,.>.>.>.<.<.+.C u U t.t.t.t.t.t.t.t.t.t.t.t.t.t.t.",
"q.q.q.r.w.t.t.t.w.t.t.6.%.` ' ! m y : ; 5 j e 3 C C C M C M C M r w ; T 0.t.t.t.t.t.t.t.t.t.t.t.t.t.",
"q.q.w.q.w.r.w.r.t.w.w.t.9.>.o . u d s f z c z z z z z z z z g j z x w 1 *.q.t.t.t.t.t.t.t.t.t.t.t.t.",
"q.q.q.t.t.r.t.t.r.t.r.t.t.9.P r s s z c c c c c c v v c v v v v c c g 6 K 0.t.t.t.t.t.t.t.t.t.t.t.t.",
"r.q.q.t.w.w.w.t.q.t.t.r.t.r.:.. 7 z c c c c c c x x x c x x x x c x g 6 K 8.t.t.t.t.t.t.t.t.t.t.t.t.",
"w.q.q.w.t.r.t.t.w.r.w.w.r.t.7.% . l v x c x c c c x x v x v x x c c g 6 L w.t.t.t.t.t.t.t.t.t.t.t.t.",
"q.q.r.w.w.q.t.w.t.t.r.t.w.w.t.7.Y G b v z f f x v v x c c x v g f f g 6 K t.t.t.t.t.t.t.t.t.t.t.t.t.",
"w.q.w.w.r.t.t.t.q.t.t.w.t.t.t.r.:.H B v z p = f z v x x x v g p = f g 6 K 8.t.t.t.t.t.t.t.t.t.t.t.t.",
"r.q.q.r.t.w.w.t.w.t.r.t.r.w.w.r.<.H B n x f = = f x v c x g a * a g g 6 K 0.t.t.t.t.t.t.t.t.t.t.t.t.",
"q.q.q.q.q.q.w.r.r.t.w.t.w.w.w.r.>.H B v x x f * = f x x g a * a g v g 6 # q.t.t.t.t.t.t.t.t.t.t.t.t.",
"w.q.q.q.w.t.w.q.w.t.t.t.t.r.r.r.>.H B v x v x f = = d g a * a g v c g 6 K 8.t.t.t.t.t.t.t.t.t.t.t.t.",
"q.r.w.q.q.t.w.r.w.r.w.r.t.w.w.r.<.H B v x v v x f = = p * p g c c c z 6 K 9.t.t.t.t.t.t.t.t.t.t.t.t.",
"q.w.q.q.r.w.w.r.w.t.t.t.t.w.t.w.<.H B v x c x x z d * & p g c c c c f 8 # 9.t.t.t.t.t.t.t.t.t.t.t.t.",
"r.w.q.q.w.t.w.q.w.t.w.t.t.t.t.r.<.H b v x v x v z a & & * f x c c c g 7 5.t.t.t.t.t.t.t.t.t.t.t.t.t.",
"w.q.w.q.q.w.w.r.w.t.r.t.t.w.w.r.<.H B v v x x g a * a d = q f x c c f 7 E t.t.t.t.t.t.t.t.t.t.t.t.t.",
"q.q.r.q.q.r.t.q.r.t.w.t.e.e.w.r.>.H B v v x g a * a z x f = * f x c g 7 U t.t.t.t.t.t.t.t.t.t.t.t.t.",
"r.w.q.q.w.t.w.q.w.t.e.e.t.t.w.e.<.H B v x g a * a g c c x f = = f x g 7 K w.t.t.t.t.t.t.t.t.t.t.t.t.",
"w.r.w.q.r.w.w.r.w.t.r.w.t.w.t.r.<.H V v z s * a g c c c c x f = = f g 6 K 0.t.t.t.t.t.t.t.t.t.t.t.t.",
"q.w.q.q.q.t.t.q.r.t.r.t.t.w.w.r.<.H B v g a s g c c c x c c x f p f f 7 K 0.t.t.t.t.t.t.t.t.t.t.t.t.",
"w.r.q.q.q.w.w.r.w.t.w.t.t.w.w.r.1.F Q n c g x c v c v c c c c x z z f 8 P q.t.t.t.t.t.t.t.t.t.t.t.t.",
"q.w.q.q.q.t.w.r.w.t.w.t.t.w.t.t.8.U Q V c c x x x x x x x x x x c z p < :.t.t.t.t.t.t.t.t.t.t.t.t.t.",
"r.w.w.q.q.w.w.w.r.t.r.t.t.t.r.t.q.=.J W k u u u h h h u h u h u y 9 : A 5.t.t.t.t.t.t.t.t.t.t.t.t.t.",
"w.q.q.q.w.w.q.w.w.t.w.w.r.w.w.w.w.9.=.I I L L L L L L L L L I I L K T 1.w.t.t.t.t.t.t.t.t.t.t.t.t.t.",
"q.w.q.q.r.w.w.r.w.t.t.w.r.t.t.w.w.r.q.9.9.7.9.9.7.8.q.7.8.0.0.9.8.0.q.w.t.t.t.t.t.t.t.t.t.t.t.t.t.t.",
"w.r.r.q.r.w.r.w.r.t.r.t.w.t.w.t.w.w.w.t.t.t.t.t.t.t.t.t.t.t.t.t.t.t.t.t.t.t.t.t.t.t.t.t.t.t.t.t.t.t.",
"r.w.q.q.q.q.q.q.q.q.q.w.t.w.t.r.t.r.w.r.w.w.w.t.w.w.t.r.t.t.w.t.t.t.t.t.t.t.t.t.t.t.t.t.t.t.t.t.t.t.",
"w.q.w.q.r.w.q.q.q.q.r.t.t.w.t.t.w.t.t.t.t.t.t.w.t.t.t.t.t.t.t.t.t.t.t.t.t.t.t.t.t.t.t.t.t.t.t.t.t.t.",
"q.q.w.r.q.w.q.w.q.q.r.w.w.r.w.t.w.t.t.t.t.t.r.w.t.t.t.t.t.t.t.t.t.t.t.t.t.t.t.t.t.t.t.t.t.t.t.t.t.t.",
"r.w.q.w.r.q.q.w.w.q.q.w.t.r.t.t.t.r.t.w.w.t.t.r.t.t.t.t.t.t.t.t.t.t.t.t.t.t.t.t.t.t.t.t.t.t.t.t.t.t.",
"w.r.q.w.q.w.r.r.q.q.q.t.t.t.t.w.w.t.t.t.t.t.t.w.t.t.t.t.t.t.t.t.t.t.t.t.t.t.t.t.t.t.t.t.t.t.t.t.t.t.",
"q.w.w.q.w.q.q.w.q.q.r.w.w.w.t.t.t.t.r.t.t.w.t.w.r.t.w.t.t.t.t.t.t.t.t.t.t.t.t.t.t.t.t.t.t.t.t.t.t.t.",
"w.q.r.w.r.w.w.q.r.q.q.w.t.t.t.r.t.w.t.w.r.t.t.r.w.t.t.t.t.r.t.t.t.t.t.t.t.t.t.t.t.t.t.t.t.t.t.t.t.t.",
"q.r.w.q.q.w.r.w.q.q.q.r.t.w.w.t.r.t.t.t.t.w.t.r.t.t.t.t.t.t.t.t.t.t.t.t.t.t.t.t.t.t.t.t.t.t.t.t.t.t.",
"w.r.q.w.r.q.w.r.q.q.r.w.t.w.r.t.t.w.t.w.t.t.r.t.w.w.t.w.t.t.t.t.t.t.t.t.t.t.t.t.t.t.t.t.t.t.t.t.t.t.",
"q.w.w.r.w.q.q.w.w.q.w.w.t.w.t.t.t.t.r.t.t.w.t.r.t.w.t.r.t.t.t.w.t.t.t.t.t.t.t.t.t.t.t.t.t.t.t.t.t.t."
};
