/* XPM */
static char *f6dfe73c261044f289c1daadb20fa44bOkoI5KFnYPnWrIAe[] = {
/* columns rows colors chars-per-pixel */
"60 50 256 2 ",
"   c #2C3032",
".  c #2C1319",
"X  c #703518",
"o  c #431A2A",
"O  c #562E31",
"+  c #77393A",
"@  c #6A322F",
"#  c #511908",
"$  c #664A33",
"%  c #1B3147",
"&  c #313953",
"*  c #4B3D49",
"=  c #5E304C",
"-  c #344757",
";  c #364665",
":  c #35516F",
">  c #484754",
",  c #4C444C",
"<  c #754A52",
"1  c #7C6855",
"2  c #454B6A",
"3  c #445667",
"4  c #595869",
"5  c #545777",
"6  c #4D5475",
"7  c #685269",
"8  c #556B79",
"9  c #786871",
"0  c #8E3E15",
"q  c #8D2D3F",
"w  c #995229",
"e  c #964E2C",
"r  c #A65934",
"t  c #A75127",
"y  c #B46A36",
"u  c #8D5520",
"i  c #C77938",
"p  c #C26D31",
"a  c #C2523C",
"s  c #943E4C",
"d  c #B2384F",
"f  c #C63958",
"g  c #984B59",
"h  c #98545B",
"j  c #8B4A50",
"k  c #AD5258",
"l  c #B86945",
"z  c #B6794A",
"x  c #BE6657",
"c  c #B97A57",
"v  c #AB6F50",
"b  c #955565",
"n  c #A85967",
"m  c #BA5969",
"M  c #B24E67",
"N  c #9B6468",
"B  c #997274",
"V  c #96676C",
"C  c #B76769",
"Z  c #B8766A",
"A  c #B86A77",
"S  c #AD6E72",
"D  c #8F7254",
"F  c #C77947",
"G  c #CD794E",
"H  c #C7596C",
"J  c #C75973",
"K  c #D55B77",
"L  c #D34C6B",
"P  c #E75C7B",
"I  c #F25074",
"U  c #C87868",
"Y  c #C8687A",
"T  c #D9627D",
"R  c #C47B77",
"E  c #D1766D",
"W  c #E56F7B",
"Q  c #B48B3A",
"!  c #D68A3F",
"~  c #9C8F4F",
"^  c #B98747",
"/  c #B79356",
"(  c #B59C68",
")  c #AB877A",
"_  c #B5906D",
"`  c #B2A56A",
"'  c #A4975C",
"]  c #C98756",
"[  c #C79755",
"{  c #D2904E",
"}  c #EB9554",
"|  c #C7A456",
" . c #D7A75B",
".. c #DDB45B",
"X. c #CBA948",
"o. c #E5B85E",
"O. c #CB8A68",
"+. c #D68B67",
"@. c #DA946B",
"#. c #C68877",
"$. c #CB9678",
"%. c #D59A78",
"&. c #EA9964",
"*. c #F1976F",
"=. c #C7A966",
"-. c #D4A66A",
";. c #D9BE67",
":. c #C7B677",
">. c #D3B272",
",. c #E4BA63",
"<. c #E8A87B",
"1. c #F9A574",
"2. c #FDB579",
"3. c #F3AF70",
"4. c #DAC576",
"5. c #E7C76A",
"6. c #E9CC78",
"7. c #F9D978",
"8. c #F0CF72",
"9. c #FCE17D",
"0. c #E0C15B",
"q. c #3F5A88",
"w. c #515988",
"e. c #526691",
"r. c #706F8F",
"t. c #635E96",
"y. c #B67887",
"u. c #987A82",
"i. c #FA5D82",
"p. c #D76983",
"a. c #C97586",
"s. c #D7768A",
"d. c #CC6580",
"f. c #E76A87",
"g. c #E9728D",
"h. c #FD698A",
"j. c #B68887",
"k. c #B59597",
"l. c #B08C8D",
"z. c #BEA49B",
"x. c #BAB38D",
"c. c #938CA2",
"v. c #BC98A3",
"b. c #A29CAA",
"n. c #B7AEAD",
"m. c #98A0A2",
"M. c #C79B88",
"N. c #D99498",
"B. c #CC918D",
"V. c #E4928F",
"C. c #CAA78A",
"Z. c #D7A88A",
"A. c #CDAF95",
"S. c #E8A987",
"D. c #F4A88C",
"F. c #E8B989",
"G. c #FBB487",
"H. c #E8AA97",
"J. c #E9B797",
"K. c #F5B999",
"L. c #FAAD91",
"P. c #D698A3",
"I. c #EA98A7",
"U. c #ED8EA2",
"Y. c #CCB9A7",
"T. c #D6B7AA",
"R. c #CDB8B6",
"E. c #D7B5B8",
"W. c #D2AAAF",
"Q. c #E4A9B5",
"!. c #EEB3B0",
"~. c #B3C4B6",
"^. c #D5C699",
"/. c #CEC792",
"(. c #FFC589",
"). c #FBC698",
"_. c #EAD798",
"`. c #F9D899",
"'. c #ECD08C",
"]. c #F8E599",
"[. c #F8E68D",
"{. c #D8C8A8",
"}. c #C8C5B7",
"|. c #D3CCB6",
" X c #EBC8A5",
".X c #FAC9A6",
"XX c #FAD6AA",
"oX c #FDC9B8",
"OX c #E9D9B9",
"+X c #FBD8B5",
"@X c #E9CFB1",
"#X c #FAE5A8",
"$X c #FBE8B7",
"%X c #FFF6B7",
"&X c #F2E8B3",
"*X c #D8E2BF",
"=X c #B7BCC7",
"-X c #D7B8C4",
";X c #F5B8C7",
":X c #B9C9CA",
">X c #C8CBC8",
",X c #D7C6C5",
"<X c #D1D4CE",
"1X c #E7C8C9",
"2X c #FBC5CA",
"3X c #E8D9C8",
"4X c #FEDAC5",
"5X c #FDC9D8",
"6X c #FCD8D8",
"7X c #EBD0D3",
"8X c #D9E8D9",
"9X c #EBE8C7",
"0X c #FBE7C8",
"qX c #FFF3C8",
"wX c #E7E5D9",
"eX c #FBE9D9",
"rX c #FEF3D4",
"tX c #FFFDDC",
"yX c #FDF6D8",
"uX c #EDF3DC",
"iX c #FFDCE3",
"pX c #FFD7E8",
"aX c #EADEE2",
"sX c #DEEFE4",
"dX c #EBEAE7",
"fX c #FEE4EC",
"gX c #FFECEC",
"hX c #FAE7E6",
"jX c #E8F5EA",
"kX c #FEFDE4",
"lX c #F3F4EC",
"zX c #FDF3ED",
"xX c #FEFEEC",
"cX c #F6FAE9",
"vX c #FFEBF3",
"bX c #FCEAF6",
"nX c #EDFEF5",
"mX c #EEFFFC",
"MX c #E7F7F8",
"NX c #F5F5F5",
"BX c #FEF3F4",
"VX c #F4FCF5",
"CX c #FDFDF4",
"ZX c #F4F5FB",
"AX c #FEF5FC",
"SX c #F5FFFD",
"DX c #FEFEFA",
"FX c #FFFBFF",
"GX c #FFF9FE",
"HX c #F9FFFF",
"JX c #FBFFFE",
"KX c #FFFDFF",
"LX c #FFFFFF",
"PX c #FDFEFE",
"IX c #FEFEFE",
"UX c #D6DBE8",
/* pixels */
"SXSXHXHXPXPXHXSXSXSXSXSXSXSXPXPXPXPXDXCXCXCXDXPXHXHXSXSXHXHXCXHXHXSXHXDXxXtXqX%X[.].].{.*XaXGXGXGXxXCXHXPXPXPXCXCXxXxXxX",
"SXHXHXPXPXPXPXPXHXHXSXSXHXHXPXPXPXPXDXDXCXCXDXPXHXHXHXSXHXPXDXDXPXHXDXxXtXqX$X].'.[.'./.A.,XAXAXVXCXCXDXPXJXJXPXCXxXxXCX",
"SXSXPXPXPXFXPXFXFXPXPXPXPXPXFXPXHXSXSXHXSXDXPXPXPXHXHXHXPXPXDXGXCXxXxXtX0X&X#X[.[.[.4.' C.OXGXAXCXCXDXPXPXFXFXPXDXCXCXCX",
"HXHXPXPXFXFXGXFXGXFXFXFXFXFXFXPXPXHXHXHXDXPXPXPXPXPXHXHXPXPXAXxXtXtXyX%X$X].[.[.[.9.0.=./.$XkXVXCXCXNXGXFXFXPXFXPXDXCXCX",
"PXPXPXPXFXFXFXFXFXFXGXPXPXPXPXPXFXFXGXAXAXGXFXFXPXPXPXPXPXFXGXxXqX%X%X%X`.[.7.9.9.9.8.8.8._.$XtXxXCXCXFXPXFXFXZXPXPXPXDX",
"PXPXFXPXFXFXFXFXDXGXGXCXDXCXDXDXFXGXGXGXAXCXFXPXPXHXHXPXPXPXCXkX%X%X#X[.'.7.7.7.9.7.5.7.[.6._.#XrXkXBXCXFXAXGXFXFXPXPXPX",
"FXFXFXPXPXHXHXDXHXDXDXDXDXCXSXSXSXSXPXDXCXCXSXmXmXmXHXPXDXCXxXtX#X[.[.6.8.8.8.8.7.7.0.7.9.6.'.4._.OXrXkXBXAXFXFXFXPXPXPX",
"GXFXPXPXHXSXSXSXCXSXDXDXCXCXBXCXCXBXBXBXBXBXCXDXSXSXSXDXCXxXkXyX_.6.5...;.,.o.5.0.0.0.5.5.0.5.4.` :./.OXtXxXGXGXFXPXPXPX",
"bXAXPXPXnXmXmXmXVXDXBXBXvX6X!.Q.U.V.a.V.U.!.5XbXGXAXNXCXxXxX9X&X'.6.;.5.,.;.o.{  .o.....,.,.o.5.7.4.4.` |.tXxXBXPXPXPXPX",
"FXGXPXSXmXnXSXSXCXgXvX2Xa.Y g.K I P L k m j m g.;XvXCXuXcXkX0X+XF.>.=.| [ [  .;. . .-.,.8.,.o.5.5.5.4.:.` /.yXCXDXPXFXPX",
"PXGXHXSXVXnXSXGXvXpXU.K f.f.I I I P E A B.h L M M !.BXCXxXrXoXK.F.'.'.'.6.-.[ ^ [ z ^ /  . .o...X.0.5.6.4.4.OXxXDXPXPXPX",
"PXZXSXHXSXDXGXAX5Xs.L P h.h.h.P i.I m Y @ @ M f M n ,XcXcXrXoXD.+X+X0X#XXX`.`.(.F.<.-.[ y ] X.Q 0.X.X.X./ ` /.kXCXPXPXFX",
"SXPXHXSXGXCXAX5XU.J f.P f f T P I L f C # s K d.M b ,XVXuX{.H.H.0X@X0X.X X).XX`.XXXX).F./ ^ ^ Q Q Q X.| =.` ` *XxXPXFXPX",
"SXHXHXCXBXAXpXI.J g.P d d M n m I P H k g A m M y.Q.PXCXcX|._ H.gXeX0X+X$X_.XX X).J..X).<.^ Q ] X.Q | | | ` ` &XxXDXPXPX",
"PXHXPXGXGXvX;Xp.g.H H M g !.eXl.g g j = < E.5XpXbXAXHXjXxXxX{.3XeXeX_ D +X XXXXXXX.XK.J.F.<./ Q Q ^ =./ 4.` ` *XxXDXPXPX",
"PXCXFXFXAXfX!.K T K H n j.kXcXuX-XV @ o o 7XbXGXGXZXHXVXlXxXOX3XuX9XO . &XXXXX X X.XS._ S.XX<.^ ~ z ^ z ' 4.x.9XCXPXPXPX",
"PXPXSXSXCXhXs.T P K n y.iXDXvXFXbXpXv.< 9 n.JXSXSXCXCXcXCXxX{.rXrX0X$ 1 0X&X@XXX X+XX # $.XXK.J.#./ u u ~ ' x.CXPXPXPXPX",
"FXDXSXSXCX6Xp.P P K A B.BXPXAXGXbXAXAXpXhXPXPXZXVXjXCXCXxXBXgX3XeXOX{.0X$X XrXXX+XZ.# # J.+XJ.Z.H.Z.>.| ~ ` wXPXPXFXFXFX",
"FXPXSXCXCX5XY P P K n E.DXHXFXFXPXSXSXPXPXPXDXDXPXFXPXFXPXZXPXdX0X0X0XrX$X XXX XXX.X' C.oXJ.J.K.V.S.$./ =.^.3XvXFXGXFXFX",
"PXDXSXDXBX6XJ K f.p.N ,XZXVXPXHXVXnXnXVXCXVXBXGXgXFXFXAXFXZXbXwX3X0X+X+XeX+X.X+X.XoX.XXX@XJ.H.Z.N.H.%.$.Z.C.Y.GXGXFXPXDX",
"PXPXSXCXGX6XY K g.s.N ,XVXVXSXHXSXSXSXSXCXCXCXxXxXzXzXBXgXGXvXBX4X4X+XXX_ c K..XK.K.K.J.S.J.J.M.N.j.C.Z.C.A.eXDXFXPXSXSX",
"PXFXPXDXBXfXs.J g.s.S W.xXSXHXSXHXHXSXlXcXxXxXtXyXY.{.0XC.!.oX!.H.K.oX.Xe X S.J.K.J.J.J.Z._ M.C.z.n.Y.^.OXyXCXDXPXPXSXSX",
"PXBXHXDXBXbXP.m f.s.A l.hXDXVXHXZXGXFXDXCXxXrXOX@X( F.$XS.&.*.z G U S.!.D.+.D.G.D.S.%.%.%.%._ M.}.VXVXuXxXxXeXCXDXDXSXSX",
"FXBXHXSXNXAXQ.m g.g.J A 5XGXVXPXPXGXGXFXCXkX9XOXXX>.%.(.2.i &.G E t r G +.<.@.E O.@.O.c #.%.H.+XhXaXdXcXCXBXBXBXBXCXSXCX",
"GXvXHXVXnXCX6XA J f.f.d.P.pXAXHXSXSXHXFXCXzX4XoX.XF.@.G.2.i y p G F t 0 t r y l w l v e Z O.v h j s g b y.Q.;XbXvXBXVXVX",
"AXAXSXSXMXSXvXQ.d.g.f.L d.W.hXCXSXSXHXPXAXgX6X4X0X4X).D.<.G.<.{ G.K.L.1.G t t t r y z ] S./ e X s q s M b M d.s.2XfXCXSX",
"AXGXHXmXnXVXDXiXa.J L p.y.y.W.bXZXPXFXPXPXFXBX6X1XE.!.H.#.O.U l y G 1.G..XXXG.&.F y w w G @.K.<.U !.Q.k.u.b g A R !.gXFX",
"GXFXSXVXnXSXGXGX;Xs.m d.d.n S P.fXAXGXAXZXFXFXAXfXk.k.) Z R U E } i p p p } 2.G.).XXK.O.y r K.D.%.eXxXBXGXfXP.C g Y E.AX",
"FXPXPXSXSXSXVXGXAX;Xa.k n a.A N j.-XbXAXAXAXGXZXGXhX6XQ.A E W +.1.3.7.3.} ! p y i G &.G.@.r ] ^ %.C.uXnXMXHXBXN.n n j.fX",
"PXPXPXPXHXPXBXCXBXgX1Xj.g h S A g Y P.;XfXbXAXGXBXGXzXoXU x a a y ! } 1.(.(.2.2.&.F y t 0 0 ] O.^ ~ *XnXMXNXAX;XY m V 7X",
"SXHXFXFXFXDXDXDXCXDXDX6XP.N g M C m n n y.-X5XpXvX2XD.L.L.1.} } } { ! i i ! { } &.1.8.} w 0 l ] 3.>./.sXSXPXfX6XH H n ;X",
"SXSXPXFXBXAXPXDXSXVXVXPXBX2XB.g g g n n b s b V N V h C +.} } 1.2.(.(.(.(.2.1.&.} F F l t e z <.<.-.{.tXCXgX5X!.m m y.vX",
"PXPXPXPXPXPXPXPXPXDXNXCXGXGXgXhXv.b < < + O = o o = 5 7 < b v h x G U E E *.D.<.D.K.<.+.%.S.v x %.J..X X4XoX#.E C a.T.hX",
"PXPXPXPXPXPXPXPXPXPXGXPXPXPXCXvXGXbX1Xl.b < =   t.t.t.w.6 9 < < + + s s + + q + X $ $ D v @X@Xv _ M.J.!.K.V.Z Z _ B.T.6X",
"PXPXPXPXPXPXPXPXPXPXPXPXPXPXHXFXbXGXFXvXAXE.c.u.t.q.w.t.e.6 3 6 4 , * , , * , , , *     . c.FXhXT.A.M.H.A.M.Z.j.S A.6XBX",
"PXPXPXPXPXPXPXPXPXPXPXPXPXPXPXPXFXGXAXFXZXr.& 4 t.t.q.t.e.: e.: 8 : ; : ; 3 : ; - 3 - - - 8 =XZXhXzX6X@Xj.V j.j.z.1XBXCX",
"PXPXPXPXPXPXPXPXPXPXPXPXFXCXPXFXFXFXGXFXbXr.% & w.w.w.w.q.q.q.q.: ; : : : - ; & 2 6 2 6 3 2 2 c.fXGXCXgXgX7X,X,XgXCXDXGX",
"PXPXPXPXPXPXPXPXPXPXPXPXPXPXPXPXBXPXFXZXFX<X7 . . & c.r.5 e.: q.: ; ; - % % ; - 2 ; 5 5 ; 5 & 3 c.dXFXAXDXAXDXDXPXHXPXPX",
"PXPXPXPXPXPXPXPXPXPXPXPXPXPXPXPXCXCXDXjXHXPX>X9 o B -XP.9 7 ; 6 - 3 e.: % % - - 5 ; 2 4 6 c.>XUXZXFXFXJXPXPXNXZXjXZXPXPX",
"PXPXPXPXPXPXPXPXPXPXPXPXPXPXPXDXxXcXVXSXnXNXCXeXW.eX2XE.u.> 5 * - m.MX:Xe.%   - * 4 4 b.=XUXZXSXFXZXPXPXZXHXSXHXHXHXSXSX",
"PXPXPXPXPXPXPXPXPXPXPXPXPXPXPXPXVXCXCXnXSXSXcX3X@XY.C.) 1 , - 4 n.PXPXPXdXr.* * 7 9 k.n.-XdXNXlXFXFXPXJXJXJXHXSXSXHXHXDX",
"PXPXPXPXPXPXPXPXPXPXPXPXPXPXPXPXbXGXCXdXlXlX<Xz.k.) ) z.,X>X>X>XZXPXAXPXDXUXR.,Xv.l.k.z.Y.wXxXCXCXPXPXJXHXSXSXHXHXDXDXDX",
"PXPXPXPXPXPXPXPXPXPXPXPXPXPXPXPXAXbX-Xk.W.1XR.l.B j.W.6XFXHXSXSXHXCXHXZXPXPXbXFXW.k.l.k.|.kXcXuXxXDXCXSXPXHXCXPXPXDXDXDX",
"PXPXPXPXPXPXPXPXPXPXPXPXPXPXPXFXpX;Xs.y.y.y.B B W.1XbXGXFXJXSXSXJXZXPXPXZXFXAXvXR.j.B j.Y.tXtXtXCXCXCXDXDXDXZXPXDXPXDXPX",
"PXPXPXPXPXPXPXPXPXPXPXPXPXPXPXFXvXI.Z R B.B.N l.hXAXGXAXAXZXPXPXGXFXbXFXAXAXGXQ.N.C C R #.Z. XqXcXCXCXxXDXDXGXPXPXPXPXPX",
"PXPXPXPXPXPXPXPXPXPXPXPXPXPXPXCX6X#.v #.D.$.v M.BXZXAXZXZXJXPXGXbXPXdXAXBXVXvXj.h k H l O.G.XXXXOXcXCXCXDXDXPXPXPXPXPXPX",
"PXPXPXPXPXPXPXPXPXPXPXPXPXPXPXCX^.:.`.%X].>.` *X8XsXMXMXMXdXwXwX8XsXsXjX8X8X3X) S c x r F `.%X_.x.8XCXCXCXPXFXFXPXPXPXPX",
"PXPXPXPXPXPXPXPXPXPXPXPXPXPXPXCX9X/.].`.[./.` /.:X:X=X:X:X:X}.}.:X~.:X~.n.~.n.k.j.v Z c _ =.( ' ) <XCXDXCXPXPXPXPXPXPXPX",
"PXPXPXPXPXPXPXPXPXPXPXPXPXPXPXDXwX/.x.( _ D ` ~.>X:X>X>X>X>X>X>X>X>X>X:X}.>X>X,XR.R.R.T.R.}.}.|.wXlXDXPXDXCXHXPXPXPXPXPX",
"PXPXPXPXPXPXPXPXPXPXPXPXPXPXPXPXCXuX0X X XA.<XNXMXZXlXgXzXBXZXZXVXVXNXNXVXNXNXVXJXCXHXSXCXCXPXPXNXJXPXFXPXGXPXPXPXPXPXPX"
};
