/* XPM */
static char *result[] = {
/* columns rows colors chars-per-pixel */
"50 50 73 1 ",
"  c #020202",
". c #0C0C0C",
"X c #1C0E0E",
"o c #141414",
"O c #1C1C1C",
"+ c #251717",
"@ c #341717",
"# c #3B1515",
"$ c #232323",
"% c #2B2B2B",
"& c #332222",
"* c #392626",
"= c #322C2C",
"- c #3F2A2A",
"; c #343434",
": c #3B3B3B",
"> c #4F1E1E",
", c #472626",
"< c #4A2A2A",
"1 c #5E2323",
"2 c #502D2D",
"3 c #4B3232",
"4 c #413F3F",
"5 c #533232",
"6 c #543E3E",
"7 c #593F3F",
"8 c #6F2A2A",
"9 c #7F3535",
"0 c #723D3D",
"q c #444444",
"w c #4A4343",
"e c #4B4B4B",
"r c #534B4B",
"t c #5B4C4C",
"y c #545454",
"u c #5B5353",
"i c #5C5C5C",
"p c #624343",
"a c #624C4C",
"s c #6A4A4A",
"d c #7B4646",
"f c #764E4E",
"g c #675353",
"h c #635D5D",
"j c #5F6161",
"k c #636363",
"l c #6B6060",
"z c #6C6C6C",
"x c #786666",
"c c #737373",
"v c #7C7C7C",
"b c #852929",
"n c #854646",
"m c #8B4D4D",
"M c #925151",
"N c #966666",
"B c #827D7D",
"V c #848484",
"C c #8B8B8B",
"Z c #908F8F",
"A c #939393",
"S c #9B9B9B",
"D c #A3A3A3",
"F c #ABABAB",
"G c #B0ACAC",
"H c #AFB0B0",
"J c #B3B3B3",
"K c #BBBBBB",
"L c #C3C3C3",
"P c #C8C7C7",
"I c #CCCCCC",
"U c #D4D4D4",
"Y c #D9D9D9",
/* pixels */
".kFFDDSvcccccccccckiiikzzzvADDHKKKKKKKKKKKKKKKKKKK",
".qcVvvVVBVvvvcvBVvziyyyezVZvvvVSFKKJJKKKKKKKKKKKKK",
"  :CCczykcjyqqiccizvvvzy:ecSDFAzzSAZAFJKKKKKKKKKKK",
"  %VVkq%qkke:iVcq;yvAVCA:.=VHKJCzjcCCjVKKKKKKKKKKK",
"  .$qyyyjcjizAFCyeeicvck::jSJKKKDvjvv=zJKKKKKKKKKK",
"    .O==ejyyijzziyee4qqyvSHLLLLKLLCj4$jHKKKKKKKKKK",
"  .%::44qeeeeqeeeyyicVCFJKJJJJJKLILDVjcZDHKKKKKKKK",
"  $zVCCCCCZADSSDHFFFHHHHHDDSSSDFHKLFCCCBiCFKKJKKKK",
"  $cAASDKLKKKJKHSDDFFDDDDFFJKJHHSvjq%%ykizBCFKKKJK",
"  $cCSFLIPDZAZZZADFJKKKKKHFPIIUUA%O$o$qiecciBDKKKK",
"  $cAFPUKSVCZAASFKKKLKLKLJHLIYYYZooOo$qjyeivjcSKKK",
"  $cAFUUDvCASSDHKKKLKKKKKKKLIYYLV%;ye$$qeqqyczjZHK",
"  $cAFIKAvZASSHKKKLKKKLKKLLIUYIByzBDFk;=6tyyecvyVJ",
"  $cAJLCBASSSHKKLKLKKLKLKKLUYYKy:VSKUKi&dmfr%yBizC",
"  $zCJKVvASADJKKKJJKJKJKKKKIUKc:qvAFPGu-Mm0w::kSj;",
"  $cAJPCcVVVCSDDDDDDDDDDSSDFHSzq::rlxp,<tarizvSKkO",
"  $kvSFCvBvBVASAAAASDDDHFFFFJKDZk%*<5aruBCVzcikFkO",
"  .$:eizzzzzcvcvvvzjcvVSHKKLLPILFZBzhczjzzckeO;DkO",
"  .:izccvVcczzcvVvccciqecCFJHDJLIJz4==ehzcvve$;SkO",
"  =ZCziqiciq;:kcjqivBvvc:%yAFHDFJJ4X#>27ghzze$;DkO",
"  Okvj:;qjzyyvSvq:ycCVCZ:.=VHKKJPK:.@89bndpr:$;DkO",
"   .$:yyzcjjzCDCjiyyzkyqqjVFKKLLIKq.+8bbNM0wq$;Dk$",
"   ..O$$;eqqqeeeqqqqqqqyCHKKKKLLUK:.+180fsahi;;DkO",
"  oeiijijkkjkkzzccvVSSCcDLLKLLIUUK:.$36qweizk::SkO",
"  $cCAAASSFFFDFHJKJKLKDvSJKJLIYYUF:Oqikjeeizz::Sk$",
"  $cASSFJHFDSCvCDJLLLLAkcVVcSUYYUD:%yjzziyizk;;DkO",
"  $cCDJJScq;eciqiDLLLSj:qzcqVIYYUD:$qyyjzcvvy$;DjO",
"  $cAFKzee;oOqykVFHDCiqekyeVKUYYUD:$ejzcvVVvy$;DkO",
"  $cZJJy:jyqecDDDSSv%%:jCj4FYYYYUD:%izcvvVCve$;DkO",
"  $cAHKzeycCSDFFFFDvO %yyjVLYYYYUF:%izzcBVVvy$%Bkq",
"  $cSKPSCSFFHJJKKKKC$o4zqcLYYYYUUD:%izcvvBvzi%.%zS",
"  $cFPULHFJKLKKLKKLZ$:eqVKUYYYYYUD:%yzzvvvzyj:OeCJ",
"  $cFKKCiecSJKKLLKKA$$:iHYYYYYYUUF:%izzccziyyeiSHK",
"  $cFSy$. o;iVFKKKLA::zDIYYYYYYYUD:%izjzjyiiezDKKK",
"  OkFVo    .$;zAHKKFvZJUYYYYYYYUUD:$eeyeeyzvAHKKKK",
"  OjFVo   .oO$yvAJKKLIYYYYYUUIUYIF:o%qeqqcDHKKKKKK",
"  okFVo    oO%ivCFKLUYYYYYYIIIUYUF;o:q;:VFKKKKKKKK",
"  OkFCo    oO%kvCFLLUYYYUUIIIUYYUD:.=ceqDKKKKKKKKK",
"  OjFCo .  oO$kvCHKLUUYYUIIIUIYYIF:OqcBCHKJKKKKKJK",
"  OkFVo    oO%kvCHKLUUUIUIIPPIUIPD:eAFHKKKKKKKKKKK",
"  OkFCo    oO%iBCFKLUIPIIPLLIYUPLD:yHLKKKKKJKKKKKK",
"  OkFVo    oO%jBCHLLUUUIPLIUUUILKAejFKKJKKKKKKKKKK",
"  OiFVo    oO%jBCFKLUYYUUYYYUPLKZecSJKKKKKKKKKKKKK",
"  OkFCo .  oO%jBCHKLUYYYYYUUILLDcyAKKKKKKKKKKKKKKK",
"  OkFVo    .O%jVCFKLIUUYYYYIILDzkSJKKKKKKKKKKKKKKK",
"  OiDV%ooOo$;qcZDKLHSDKPYYYULSjcDKKKKKKKKKKKKKKKKK",
"  $zASVckkcvvVDJKKLA:ecCDJFSCVCFKKKKKKKKKKKJKKKKJK",
"  $cDLKcyzCZCDHHHJHV%:yyqqyVDFKKJJKKJKKKKKKKKKKKKK",
"..$zDJFeqcckzvVVAACcyeeeqyBFJKKJKKKKJKKKKKKKKKKKKK",
"y%OqkzzikccCDDDCvcczzCDDSFJKKKKKJKKKKKKKKJJKKKKKKK"
};
