/* XPM */
static char *result[] = {
/* columns rows colors chars-per-pixel */
"50 50 146 2 ",
"   c #1E1F36",
".  c #201F37",
"X  c #1F223D",
"o  c #212037",
"O  c #22233C",
"+  c #2B2A3E",
"@  c #232641",
"#  c #252945",
"$  c #2C2D43",
"%  c #262C49",
"&  c #292E4B",
"*  c #302F43",
"=  c #2B314D",
"-  c #333245",
";  c #353449",
":  c #3B394D",
">  c #2E3452",
",  c #303654",
"<  c #343954",
"1  c #3C3D52",
"2  c #363C5A",
"3  c #383F5C",
"4  c #3B415D",
"5  c #3D4461",
"6  c #434356",
"7  c #45465A",
"8  c #47485A",
"9  c #4D4C5D",
"0  c #504F5D",
"q  c #52515F",
"w  c #404764",
"e  c #434965",
"r  c #4D4D61",
"t  c #454D6B",
"y  c #4A516D",
"u  c #555463",
"i  c #585764",
"p  c #5A5966",
"a  c #55576B",
"s  c #5C5C6B",
"d  c #4D5471",
"f  c #4F5874",
"g  c #545A73",
"h  c #595D74",
"j  c #555D7A",
"k  c #605F6B",
"l  c #5D6177",
"z  c #5C637C",
"x  c #63626E",
"c  c #666573",
"v  c #6B6A76",
"b  c #61677F",
"n  c #6D6D7A",
"m  c #706F79",
"M  c #73727C",
"N  c #5C6581",
"B  c #616780",
"V  c #616A85",
"C  c #696E84",
"Z  c #656F8A",
"A  c #6C7083",
"S  c #67708D",
"D  c #6B748E",
"F  c #757684",
"G  c #787781",
"H  c #7B7B84",
"J  c #777A8A",
"K  c #797B89",
"L  c #6C7691",
"P  c #6F7A95",
"I  c #717A94",
"U  c #747E99",
"Y  c #7F818F",
"T  c #76819C",
"R  c #79849E",
"E  c #7B86A1",
"W  c #7E89A3",
"Q  c #808087",
"!  c #84848B",
"~  c #89898F",
"^  c #838492",
"/  c #868896",
"(  c #8D8C92",
")  c #8A8D9A",
"_  c #908F95",
"`  c #929196",
"'  c #96959A",
"]  c #98979C",
"[  c #9A999D",
"{  c #818CA6",
"}  c #838EA8",
"|  c #8990A5",
" . c #8691AB",
".. c #8994AD",
"X. c #9C9DA2",
"o. c #9D9FAB",
"O. c #8B97B1",
"+. c #8E9AB4",
"@. c #909CB6",
"#. c #929EB9",
"$. c #A09FA3",
"%. c #96A2BB",
"&. c #9AA5BD",
"*. c #9DA8BF",
"=. c #A3A3A5",
"-. c #A6A6A9",
";. c #A8A7A9",
":. c #ABABAD",
">. c #A7AAB4",
",. c #AEAEB1",
"<. c #AAADB8",
"1. c #B6B6B6",
"2. c #B7B8B7",
"3. c #B4B6BB",
"4. c #BABABA",
"5. c #9AA7C0",
"6. c #9EA9C1",
"7. c #A3ADC3",
"8. c #A7B1C6",
"9. c #A9B2C6",
"0. c #ABB5C9",
"q. c #AFB9CC",
"w. c #B0B5C1",
"e. c #B5B9C3",
"r. c #B9BCC7",
"t. c #B3BCCE",
"y. c #BABEC8",
"u. c #B6BFD0",
"i. c #BCC1CA",
"p. c #B7C0D1",
"a. c #BCC4D3",
"s. c #BFC8D7",
"d. c #C1C6D2",
"f. c #C3C9D4",
"g. c #C9CDD6",
"h. c #C4CCD9",
"j. c #C8CFDC",
"k. c #CCD2DD",
"l. c #CFD6E0",
"z. c #D1D7E1",
"x. c #D5DBE3",
"c. c #D9DEE6",
"v. c #DBE0E7",
"b. c #DDE2E9",
"n. c #E1E6EC",
"m. c #E4E9EF",
/* pixels */
"4.4.4.2.4.4.2.4.4.2.4.4.1.4.4.2.4.4.4.4.4.2.4.2.4.4.4.4.4.4.4.4.4.4.4.4.4.4.4.4.4.4.4.4.g.4.4.4.4.4.",
"4.4.2.4.4.2.2.4.4.4.4.4.4.2.2.2.4.2.2.,.,.:.:.,.:.,.,.,.4.4.4.4.4.4.4.4.4.4.4.4.4.4.4.i.4.4.4.4.4.4.",
"4.4.2.4.2.4.4.4.4.2.4.1.2.4.2.2.4.1.$.[ ~ ~ ~ ~ ~ ~ ~ ] :.4.4.4.4.4.4.4.4.4.d.4.4.4.4.4.4.4.i.4.4.4.",
"2.4.4.2.4.4.4.2.4.4.4.4.4.2.2.4.4.,.` m i 0 q q q 0 k m ] 1.4.4.4.4.4.4.4.4.4.4.4.4.4.4.4.4.4.4.4.4.",
"4.4.1.4.4.4.4.2.4.4.2.4.1.4.4.1.,.$.H i : * - - - - : p ! $.1.1.1.,.1.,.1.3.4.4.4.4.4.4.4.4.4.4.4.4.",
"4.1.4.4.2.4.2.4.4.1.4.1.2.1.1.;.] ~ A s r r r 0 r r r k G ! _ _ ( ( ~ ` ' =.1.4.4.4.4.4.4.4.4.4.4.4.",
"4.1.4.4.2.4.4.4.4.4.4.1.4.4.:._ m k v J / ) ) ) ) ) ^ K v k i u i i i p v ( :.4.i.4.4.4.4.4.4.4.g.4.",
"1.4.4.4.4.4.2.4.4.1.4.1.1.1.$.M 0 9 n $.i.f.d.d.d.g.r.o.v 6 - * - - - ; 9 M X.1.4.4.4.4.4.4.4.4.4.4.",
"1.1.1.1.4.4.1.4.2.1.4.1.;.[ ! v i h ^ e.c.m.n.b.n.n.x.3.! p 7 6 7 6 1 1 8 c ! ' ' ' [ -.1.4.4.4.4.4.",
"4.4.1.4.1.4.4.2.4.4.1.;._ m c c F ) <.g.b.m.m.n.m.m.v.d.>.) ^ Y ^ J A z h h s s x x M ~ =.2.4.4.4.4.",
"4.1.4.1.1.4.4.4.4.1.1.[ m q 0 m $.i.k.c.b.b.b.b.n.b.b.z.g.i.y.i.y.w.&. .J h 7 ; + - 6 v ' 1.4.4.4.4.",
"1.4.4.1.4.4.1.1.1.;.$.! c q s / r.c.b.b.b.b.b.b.b.b.b.c.z.z.z.c.x.l.f.0...C r ; O o - p ( 1.4.4.4.4.",
"4.1.4.1.4.1.4.1.;._ m c v F ) <.j.b.m.n.c.b.b.b.b.b.b.z.j.h.h.z.b.b.x.h.8.| A r : O + p ` 2.4.4.4.4.",
"1.4.4.1.1.4.1.1.] m 0 u F o.r.j.x.b.b.b.b.b.b.b.b.b.c.j.u.0.t.h.x.b.v.l.d.8...D r - - p ( 1.4.4.4.4.",
"4.4.1.1.4.1.:.$.! k 0 s / y.c.n.b.b.b.b.b.b.b.b.c.c.l.h.q.9.q.h.x.c.c.z.h.t.*.{ b e 6 p ! X.:.1.4.4.",
"1.1.1.4.1.-.( M v v m / <.j.n.n.n.v.b.b.b.b.b.c.z.h.a.u.t.u.a.k.x.x.l.f.p.0.6.O.U B h s v M ( ;.4.4.",
"1.4.1.1.,.] m r i F $.r.h.x.b.n.b.v.b.b.b.b.b.c.j.t.0.0.a.j.z.c.c.l.s.0.7.*.%.#...W I l 9 0 v ] 4.4.",
"1.1.,.,.$.! k 9 h ) i.x.n.b.v.b.v.b.b.b.b.b.b.c.h.9.5.9.a.z.n.b.b.k.t.7.%.#.#.%.%.#.{ z 4 - i ~ 1.4.",
"1.1.$.` Q m v A ^ <.k.n.n.n.v.b.b.b.b.b.v.b.n.x.f.9.5.9.f.x.m.n.b.k.t.6.#.#.%.%.5.*...b 1 - q ~ :.4.",
"1.:.` m q k K $.r.g.c.v.n.v.b.b.c.b.b.b.b.n.b.c.h.9.5.9.s.x.n.n.b.k.t.5.#.#.#.%.5.*. .b 1 - q ~ ,.4.",
"1.:.~ i : r / i.x.n.v.v.v.v.b.v.b.b.b.b.v.c.c.z.a.9.7.7.a.k.c.c.z.h.t.*.#.O.O. .O. .R h : - u ~ ,.4.",
"1.:.! 0 * 9 ) f.n.m.b.v.n.v.v.b.b.b.b.b.c.z.j.a.0.7.#.7.0.a.s.h.s.p.0.*.O.E P L L L B t ; $ i ~ ,.4.",
"1.:.! 0 - r ) d.n.m.n.v.v.v.v.b.b.b.n.b.c.j.u.9.7.#.#.&.6.9.9.0.8.8.6.5. .L j y t t e < # + i ( :.4.",
"1.:.! q - r ) d.n.n.b.v.n.v.v.c.c.x.c.v.x.h.q.7.6.#.&.&.#.&.&.#.%.%.5.#.W Z y 2 2 > > # o $ p ~ 1.4.",
"1.:.! 0 - 0 ) d.n.m.n.v.b.n.c.z.k.j.l.x.x.k.u.q.0.0.0.7.&.#.#.#.%.%.%.#. .P N t 3 > & O o + i ( :.4.",
"1.:.Q 9 - 0 _ d.n.n.n.v.n.v.c.h.u.u.a.l.x.x.k.f.h.h.h.u.9.#.#.#.#.%.%.#.+.W U V d 2 % O o + i ( :.4.",
"1.:.~ k : r / y.x.v.v.v.v.c.k.u.8.7.q.k.c.c.c.x.x.x.k.f.0.&.#.+.O.+.+.#.#.#.O.E N w * o o + i ( 1.4.",
"1.:.` m k k F o.3.d.x.c.x.j.d.0.&.7.q.k.b.n.n.b.c.z.j.u.8.%...{ E E  .+.5.5.%. .S e - o o + i ~ :.4.",
"1.,.;.` Q M v n Y >.h.c.l.u.9.7.#.&.q.k.b.n.n.b.l.h.t.8.7.#.{ S N N T O.5.6.*. .S t = X o + q ( :.4.",
"1.4.,.:.$.! k 6 p ) i.k.h.8.&.#.#.7.q.h.x.b.b.x.h.q.7.%.%.+.U N e y V } +.#.+.{ N e & @ o - p _ ,.4.",
"4.1.1.1.,.( q * 6 J 8.h.t.7.#.@.#.&.0.a.k.k.k.h.t.7.%.%.%.+.U N 3 3 f L R E R L g 3 & $ : 0 M [ 1.4.",
"4.1.4.4.,.( 0 $ : C #.0.8.&.#.+.#.&.7.0.q.u.u.q.8.5.%.%.&.@.U j 3 > 5 f j j j d 4 = $ 6 k H ' ;.1.4.",
"1.1.1.1.,._ p - : v | #.&.#.#.#.#.%.%.%.*.*.5.5.*.#.#.#.%.O.U j 2 > > , 2 3 2 , & O * u Q $.,.2.4.4.",
"1.1.1.1.,.] m 0 9 k D E ..@.&.#.%.#...W W } O.#.%.%.%.+. .E S d , & & & & & = & @   * p _ 1.4.4.4.4.",
"4.1.1.1.1.=._ G c s d z I  .#.7.%.+.E S N L W #.5.5.#. .U N d 5 > & % % & & % # O   $ p ` 2.4.4.4.4.",
"1.1.1.1.4.,.:.$.! k 7 7 b { @.&.#. .D f y N T +.#.%.+.T N 5 2 = > & & & & & & & @ . - k ` 2.4.r.4.4.",
"1.4.4.1.1.1.1.,.[ m 0 8 a D E | W U N 5 2 t Z T } } E Z y , & & & & % % % % # # * ; 8 m [ 1.4.4.4.g.",
"1.1.1.1.1.4.4.1.:._ M k s g h j N j t 2 > 4 d N V V N d 5 > % & & & # @ O O O $ 1 i M _ ;.1.4.4.4.4.",
"1.1.1.1.1.4.1.1.1.;.$.! c 7 1 < 4 5 2 > = > 2 5 5 5 5 2 > = & & & % @ O . . o - i Q $.:.4.4.4.4.4.4.",
"4.1.4.1.4.1.4.1.2.1.,.$.G r ; $ % % % = = = = = > = = = & & % % % & & * - * ; 9 m [ 1.4.4.4.4.4.4.4.",
"4.1.1.4.1.1.1.1.1.2.1.:._ m i : + O # % = & % % % % % # @ + + . + + 6 i x x x m _ :.4.4.4.4.r.4.4.4.",
"1.1.1.1.4.1.1.4.1.1.1.1.:.[ Q k : o O % & = = = & = % # @ . . . + : k ! ] [ [ $.-.1.4.4.4.4.4.4.4.4.",
"1.4.1.1.1.1.1.1.2.1.2.2.4.,.$.G 0 - $ % % = % % % % % % $ * + + + q G $.1.1.4.2.1.4.4.4.4.4.4.4.4.4.",
"1.1.4.1.1.4.1.4.2.1.2.2.4.2.:._ M q 4 - O @ O @ @ @ @ ; 7 u k k k M ' :.4.4.4.g.4.4.4.4.d.4.4.4.4.4.",
"1.1.4.1.1.1.1.1.1.1.1.4.2.2.1.:.] Q k : o . . . . . + 1 k ! ` ` ` ] ;.1.4.4.4.4.4.4.4.4.4.4.4.4.4.i.",
"4.1.1.1.4.1.4.1.4.1.1.4.4.4.1.1.1.$.M q - + + + $ @ - u Q $.1.1.1.1.1.2.4.4.4.4.4.4.4.4.4.4.4.4.4.4.",
"1.1.4.1.4.1.1.1.1.1.4.1.4.1.2.4.2.,.` M p i i i u u k M ] 1.4.4.2.4.4.4.4.4.4.i.4.4.4.4.i.4.4.4.4.4.",
"4.1.4.1.1.1.4.4.1.1.1.2.4.4.1.4.1.1.;.] ( ~ ~ ~ ~ ~ _ [ :.1.4.4.4.4.4.4.4.4.4.4.4.4.4.4.4.4.4.4.4.4.",
"1.1.4.1.1.1.1.4.1.1.1.4.4.1.1.4.4.1.1.,.,.,.:.,.,.:.,.1.1.1.4.4.2.4.4.4.4.4.4.4.4.4.4.4.4.4.4.4.4.4.",
"1.4.1.1.4.1.1.1.4.1.1.4.4.4.4.1.4.4.4.1.1.1.4.1.1.1.4.1.1.4.4.4.2.4.4.4.4.4.4.4.4.4.4.4.4.4.4.4.4.4."
};
